<?xml version="1.0" encoding="UTF-8"?>
<svg xmlns="http://www.w3.org/2000/svg" width="865.76" height="682.89" viewBox="0 0 865.76 682.89">
  <rect x="9.47" y="581.53" width="846.81" height="0.42" fill="#ebebeb"></rect>
  <rect x="715.34" y="608.78" width="56.09" height="0.42" fill="#ebebeb"></rect>
  <rect x="555.72" y="613.38" width="14.72" height="0.42" fill="#ebebeb"></rect>
  <rect x="681.15" y="593.06" width="32.5" height="0.42" fill="#ebebeb"></rect>
  <rect x="98.32" y="595.91" width="73.15" height="0.42" fill="#ebebeb"></rect>
  <rect x="186.56" y="595.91" width="10.72" height="0.42" fill="#ebebeb"></rect>
  <rect x="232.13" y="603.05" width="158.66" height="0.42" fill="#ebebeb"></rect>
  <path d="M410.86,506h-327a9.67,9.67,0,0,1-9.65-9.67V36.62A9.67,9.67,0,0,1,83.84,27h327a9.67,9.67,0,0,1,9.67,9.67h0V496.32A9.67,9.67,0,0,1,410.86,506ZM83.84,27.37a9.25,9.25,0,0,0-9.23,9.25v459.7a9.25,9.25,0,0,0,9.23,9.25h327a9.27,9.27,0,0,0,9.25-9.25V36.62a9.27,9.27,0,0,0-9.25-9.25Z" fill="#ebebeb"></path>
  <path d="M777.21,506h-327a9.68,9.68,0,0,1-9.67-9.67V36.62A9.7,9.7,0,0,1,450.17,27h327a9.68,9.68,0,0,1,9.64,9.59v459.7A9.67,9.67,0,0,1,777.21,506Zm-327-478.62a9.27,9.27,0,0,0-9.25,9.25v459.7a9.27,9.27,0,0,0,9.25,9.25h327a9.27,9.27,0,0,0,9.25-9.25V36.62a9.27,9.27,0,0,0-9.25-9.25Z" fill="#ebebeb"></path>
  <rect x="103.91" y="373.94" width="185.27" height="208.45" fill="#e0e0e0"></rect>
  <rect x="113.11" y="382.24" width="166.87" height="33.57" fill="#ebebeb"></rect>
  <rect x="113.11" y="424.53" width="166.87" height="33.57" fill="#ebebeb"></rect>
  <rect x="113.11" y="466.82" width="166.87" height="100.09" fill="#ebebeb"></rect>
  <path d="M204.24,388H188.71a11.68,11.68,0,0,1-10.06-5.74h35.57A11.7,11.7,0,0,1,204.24,388Z" fill="#e0e0e0"></path>
  <path d="M204.24,430.22H188.71a11.7,11.7,0,0,1-10.06-5.74h35.57A11.7,11.7,0,0,1,204.24,430.22Z" fill="#e0e0e0"></path>
  <path d="M204.24,472.59H188.71a11.68,11.68,0,0,1-10.06-5.74h35.57A11.7,11.7,0,0,1,204.24,472.59Z" fill="#e0e0e0"></path>
  <rect x="530.89" y="137.22" width="211.06" height="211.06" fill="#e9e9e9"></rect>
  <rect x="539.58" y="145.59" width="194.77" height="194.77" fill="#f4f4f4"></rect>
  <polygon points="588.88 145.59 539.58 330.23 539.58 230.27 562.14 145.59 588.88 145.59" fill="#fff"></polygon>
  <polygon points="610.91 145.59 558.92 340.35 549.11 340.35 601.11 145.59 610.91 145.59" fill="#fff"></polygon>
  <polygon points="734.35 198.7 734.35 298.67 723.3 340.35 696.56 340.35 734.35 198.7" fill="#fff"></polygon>
  <rect x="633.03" y="137.22" width="6.77" height="211.06" fill="#e9e9e9"></rect>
  <path d="M696.27,130.53S700.9,200,728,233.84c0,0-21.3,87.92-21.3,121.79h36.12V130.35Z" fill="#e0e0e0"></path>
  <path d="M575.55,130.53S570.72,200,543.63,233.84c0,0,21.1,87.92,21.1,121.79H529.42V130.35Z" fill="#e0e0e0"></path>
  <path d="M176.18,336.31h195L383.38,349V272.23a16.92,16.92,0,0,0-16.92-16.93H176.18a16.93,16.93,0,0,0-17,16.89v47.22a16.93,16.93,0,0,0,17,16.9Z" fill="#6fe648"></path>
  <path d="M360.13,276.12H184.54a1,1,0,1,1,0-2H360.13a1,1,0,0,1,0,2Z" fill="#fff"></path>
  <path d="M360.13,295.1H184.54a1,1,0,1,1,0-2H360.13a1,1,0,0,1,0,2Z" fill="#fff"></path>
  <path d="M325.33,314.09H184.54a1,1,0,0,1,0-2H325.33a1,1,0,0,1,0,2Z" fill="#fff"></path>
  <path d="M315.84,230.32h-195L108.65,243V166.24a16.93,16.93,0,0,1,16.91-16.93H315.84a16.93,16.93,0,0,1,16.91,16.93v47.19A16.92,16.92,0,0,1,315.84,230.32Z" fill="#1276d3"></path>
  <path d="M307.93,170.13H140.57a1,1,0,0,1,0-2H307.93a1,1,0,0,1,0,2Z" fill="#fff"></path>
  <path d="M307.93,189.11H140.57a1,1,0,0,1,0-2H307.93a1,1,0,0,1,0,2Z" fill="#fff"></path>
  <path d="M261.32,208.1H140.57a1,1,0,0,1,0-2H261.32a1,1,0,0,1,0,2Z" fill="#fff"></path>
  <path d="M245.79,124.33H371.2L383.38,137V76.07a16.92,16.92,0,0,0-16.92-16.91H245.79a16.92,16.92,0,0,0-17,16.89v31.39a16.93,16.93,0,0,0,17,16.89Z" fill="#6fe648"></path>
  <path d="M360.13,83.13h-106a1,1,0,0,1,0-2h106a1,1,0,0,1,0,2Z" fill="#fff"></path>
  <path d="M325.33,102.11H254.14a1,1,0,0,1,0-2h71.19a1,1,0,0,1,0,2Z" fill="#fff"></path>
  <polygon points="444.74 496.17 444.74 636.74 454.9 636.74 454.9 516.49 615.79 516.49 615.79 636.74 627.65 636.74 627.65 496.17 444.74 496.17" fill="#955f79"></polygon>
  <g opacity="0.3" style="isolation:isolate">
    <polygon points="444.74 496.17 444.74 636.74 454.9 636.74 454.9 516.49 615.79 516.49 615.79 636.74 627.65 636.74 627.65 496.17 444.74 496.17"></polygon>
  </g>
  <g opacity="0.6" style="isolation:isolate">
    <polygon points="444.74 496.17 444.74 636.74 454.9 636.74 454.9 516.49 615.79 516.49 615.79 636.74 627.65 636.74 627.65 496.17 444.74 496.17" fill="#fff"></polygon>
  </g>
  <polygon points="537.88 496.17 537.88 636.74 548.05 636.74 548.05 516.49 708.94 516.49 708.94 636.74 720.8 636.74 720.8 496.17 537.88 496.17" fill="#955f79"></polygon>
  <g opacity="0.6" style="isolation:isolate">
    <polygon points="537.88 496.17 537.88 636.74 548.05 636.74 548.05 516.49 708.94 516.49 708.94 636.74 720.8 636.74 720.8 496.17 537.88 496.17" fill="#fff"></polygon>
  </g>
  <path d="M337.24,582.13l.79,30.46,75.34,37.57a103.72,103.72,0,0,0,12-3.78,25.6,25.6,0,0,1,10.13-1.77c13.18.44,46.57.73,64.41-6.65,0,0,45.47-14.39,36.92-44.31,0,0-1.55-13.87-10.49-18.4,0,0-13.61-8-28.38-1l-39.84,11.08s-20,1-55.39-20.8c0,0-.68-66.21-10.88-98.34,0,0-5.7-24.61-32.65-12.82l-19.69,102Z" fill="#1276d3"></path>
  <path d="M349.7,618.39l-.41,17-14,13.46-18.37,2.45-40.11-1.36S259,622.2,282,621.25l23,1.22s21.08,1.77,27.61-1.5A47.13,47.13,0,0,1,349.7,618.39Z" fill="#6fe648"></path>
  <g opacity="0.2">
    <path d="M349.7,618.39l-.41,17-14,13.46-18.37,2.45-40.11-1.36S259,622.2,282,621.25l23,1.22s21.08,1.77,27.61-1.5A47.13,47.13,0,0,1,349.7,618.39Z"></path>
  </g>
  <path d="M353.1,614.58l-3.4,3.81A47.13,47.13,0,0,0,332.57,621c-6.53,3.27-27.61,1.5-27.61,1.5l-23-1.22c-23,1-5.17,28.69-5.17,28.69s-6.94,2.18-10.34-16.59c0,0-3.81-17.14,24.48-20.4a121.57,121.57,0,0,1,16.59,1.77s12.37,2.72,19.86-.14a96.91,96.91,0,0,1,13.21-4.08,12.48,12.48,0,0,1,10.79,2.65Z" fill="#1276d3"></path>
  <g opacity="0.2">
    <path d="M353.1,614.58l-3.4,3.81A47.13,47.13,0,0,0,332.57,621c-6.53,3.27-27.61,1.5-27.61,1.5l-23-1.22c-23,1-5.17,28.69-5.17,28.69s-6.94,2.18-10.34-16.59c0,0-3.81-17.14,24.48-20.4a121.57,121.57,0,0,1,16.59,1.77s12.37,2.72,19.86-.14a96.91,96.91,0,0,1,13.21-4.08,12.48,12.48,0,0,1,10.79,2.65Z"></path>
  </g>
  <path d="M481.4,557.76c0,.54,17.7,20.65,17.7,20.65l24.95-2.81-11.8-13.55-15.83-7.64Z" fill="#6fe648"></path>
  <g opacity="0.2">
    <path d="M481.4,557.76c0,.54,17.7,20.65,17.7,20.65l24.95-2.81-11.8-13.55-15.83-7.64Z"></path>
  </g>
  <path d="M402.69,564.49c39,23.83,55.39,20.8,55.39,20.8l.22-.81a5,5,0,0,0,.06-2.41c-1.45-6.93,7.05-12.09,10.63-13.93a6.64,6.64,0,0,0,2.37-2.1c5.16-7.31,16.26-6.79,16.26-6.79,20-.2,25.84,12.19,25.84,12.19a47.76,47.76,0,0,1,12.84,3.81A74.52,74.52,0,0,0,523.71,540a25.4,25.4,0,0,1-2.59-13.22,30,30,0,0,0-3.63-13.73c-4.15-8.55-15.55-51.83-15.55-51.83-4.15-14.77-30.29-19.65-30.29-19.65,9.94-20.6-15.9-28.19-15.9-28.19L380,436.16a13.29,13.29,0,0,0-.8,3.09,2.06,2.06,0,0,1-1.57,1.78c-4.29,1-15.68,4.46-18.5,12.3,0,0,24.23-12.15,32.65,12.82,0,0,6.61,20.61,9.72,70Z" fill="#6fe648"></path>
  <path d="M404.11,438.26s3.15,4.57,4.11,7.78a3.66,3.66,0,0,1-1.53,4.11L402.34,453s13.45,6.72,15.24,18.81c0,0,1.74-5.81,10.1-11.31,1.66-1.09,3.29-2.22,4.84-3.47,4.72-3.78,14.22-11.73,19.78-18.6,0,0-13.89,2-18.37-8.51l-6.27-19s3.14,13.89-8.51,22.62A27.34,27.34,0,0,1,404.11,438.26Z" fill="#ef9a6d"></path>
  <path d="M404.11,438.26a32.11,32.11,0,0,1,4.11,7.78s19.44,2.51,18.64-23.17C426.86,422.87,421,437.84,404.11,438.26Z" fill="#cd6d33"></path>
  <g opacity="0.2">
    <path d="M406,464.71a.52.52,0,0,1-.29-.09l-12-8.55c-.37-.21-9.88-5.82-12.63-14.84a.5.5,0,0,1,.34-.62.48.48,0,0,1,.62.33c2.63,8.64,12.11,14.23,12.21,14.29l12.09,8.57a.5.5,0,0,1-.29.91Z"></path>
  </g>
  <g opacity="0.2">
    <path d="M372,450.72a.49.49,0,0,1-.44-.26.51.51,0,0,1,.19-.68,40.07,40.07,0,0,1,11.43-4.33.51.51,0,0,1,.58.41.5.5,0,0,1-.4.58,39,39,0,0,0-11.12,4.21A.42.42,0,0,1,372,450.72Z"></path>
  </g>
  <g opacity="0.2">
    <path d="M433.21,467a.5.5,0,0,1-.2-1L453.8,457c.23-.1,23.41-10.89,17.42-27.55a.49.49,0,0,1,.3-.64.5.5,0,0,1,.64.3c6.3,17.53-17.71,28.69-18,28.8L433.41,467A.51.51,0,0,1,433.21,467Z"></path>
  </g>
  <g opacity="0.2">
    <path d="M490.73,455.19a.54.54,0,0,1-.21-.05l-11.09-5.27a75.11,75.11,0,0,0-9.91-3.88l-.51-.15a.5.5,0,1,1,.3-1l.51.16a75.64,75.64,0,0,1,10,3.92L491,454.24a.5.5,0,0,1-.22.95Z"></path>
  </g>
  <g opacity="0.2">
    <path d="M481.6,482.59a.63.63,0,0,1-.19,0,.51.51,0,0,1-.27-.66c6.19-15.29,18.29-25.55,18.41-25.65a.5.5,0,0,1,.64.76c-.12.1-12,10.22-18.13,25.27A.5.5,0,0,1,481.6,482.59Z"></path>
  </g>
  <g opacity="0.2">
    <path d="M482,552.75h0a.5.5,0,0,1-.46-.54c.95-11.65-2.29-29-2.33-29.21-4.25-23-.7-32-.55-32.35a.5.5,0,0,1,.65-.28.51.51,0,0,1,.28.66c0,.08-3.58,9.13.61,31.78,0,.18,3.3,17.7,2.34,29.48A.51.51,0,0,1,482,552.75Z"></path>
  </g>
  <g opacity="0.2">
    <path d="M472.66,562.47a.43.43,0,0,1-.19,0,.51.51,0,0,1-.28-.65c.06-.13,5.23-12.59,18.17-12.59l1.18,0L511,550.58a.5.5,0,0,1-.07,1l-19.44-1.36c-13.11-.73-18.3,11.81-18.35,11.93A.49.49,0,0,1,472.66,562.47Z"></path>
  </g>
  <path d="M332.92,506.19s-5.63-.78-8.74,12.24c0,0-.78,4.47-7.58,10.3,0,0-4.8,4.5-5.14,8.36a17.31,17.31,0,0,1-.5,3.13c-1.29,4.69-3.36,18.17,9.14,33.8,0,0,15.74,19,19.43,3.11a240.6,240.6,0,0,0,2.92-24.3s1.94-12.24,3.11-15.74c0,0-9.72,6.41-12.05-.58A110.25,110.25,0,0,1,331.18,517a23.31,23.31,0,0,1,.59-5.64Z" fill="#6fe648"></path>
  <g opacity="0.2">
    <path d="M322.24,559.55a.49.49,0,0,1-.43-.24c-9-15-3.82-30.84-3.76-31a.5.5,0,0,1,.63-.32.52.52,0,0,1,.32.64c-.06.15-5.05,15.58,3.67,30.17a.5.5,0,0,1-.18.68A.47.47,0,0,1,322.24,559.55Z"></path>
  </g>
  <g opacity="0.2">
    <path d="M331,516.1s-4.37,23.62,1.78,32.22a4,4,0,0,0,6.34.29c1.69-2,4-5.52,6.46-11.52,0,0-10.5,5.83-12.05-.58C333.51,536.51,330.79,524.85,331,516.1Z"></path>
  </g>
  <g opacity="0.2">
    <path d="M351.59,570.07a3.48,3.48,0,0,1-2.06-.72c-1.64-1.19-3.73-4.41-4.34-13l-.13-19.28a.5.5,0,0,1,.49-.5h0a.5.5,0,0,1,.5.5l.13,19.24c.58,8.15,2.46,11.14,3.93,12.21a2.23,2.23,0,0,0,1.66.52.5.5,0,0,1,.61.37.49.49,0,0,1-.36.6A1.73,1.73,0,0,1,351.59,570.07Z"></path>
  </g>
  <g opacity="0.2">
    <path d="M391,577a.5.5,0,0,1-.5-.48l-.54-17a20.55,20.55,0,0,0-16.18-19.45,60,60,0,0,0-18.21-.66A.5.5,0,0,1,355,539a.51.51,0,0,1,.42-.57,61,61,0,0,1,18.56.67,21.54,21.54,0,0,1,17,20.39l.54,17a.49.49,0,0,1-.48.51Z"></path>
  </g>
  <g opacity="0.2">
    <path d="M388.7,550.09a.5.5,0,0,1-.34-.86h0c.06-.05,5.39-5.28,3.13-23.23a13.37,13.37,0,0,1,.47-5.41c1.15-3.89,2.56-13.74-.9-36a.5.5,0,0,1,.41-.57.51.51,0,0,1,.58.42c3.49,22.41,2,32.42.87,36.39a12.47,12.47,0,0,0-.44,5c2.34,18.55-3.2,23.87-3.44,24.08A.5.5,0,0,1,388.7,550.09Z"></path>
  </g>
  <g opacity="0.2">
    <circle cx="406.94" cy="471.61" r="4.07"></circle>
  </g>
  <g opacity="0.2">
    <circle cx="429.75" cy="470.33" r="4.07"></circle>
  </g>
  <path d="M413.4,532.14h-.76l-4.25-59.51a1.44,1.44,0,0,0-2.88.19l3.71,59.32h-.61a1.92,1.92,0,0,0,0,3.83h.85l.32,5.14a1.75,1.75,0,1,0,3.49-.23l-.35-4.91h.48a1.92,1.92,0,0,0,0-3.83Z" fill="#fff"></path>
  <path d="M433.33,506.3h-.75l-1.48-34.93a1.44,1.44,0,0,0-2.88.19l.94,34.74h-.61a1.92,1.92,0,1,0,0,3.83h.85l.32,5.14a1.75,1.75,0,1,0,3.49-.23l-.35-4.91h.47a1.92,1.92,0,1,0,0-3.83Z" fill="#fff"></path>
  <g opacity="0.2">
    <path d="M396.8,622.74a.58.58,0,0,1-.19,0,.5.5,0,0,1-.28-.65c.12-.28,2.88-6.73,15.41-8.44a158.54,158.54,0,0,0,23.78-13.32c.34-.22,33.79-21.35,64.26-15.63a.5.5,0,0,1,.4.58.51.51,0,0,1-.59.4c-30.08-5.64-63.19,15.27-63.52,15.48a159.42,159.42,0,0,1-24,13.44l-.13,0c-12,1.61-14.65,7.76-14.68,7.83A.51.51,0,0,1,396.8,622.74Z"></path>
  </g>
  <path d="M413.37,650.16s-4.26-18.92-15.79-28.95L341,628l-20.92.21s-2.56.43-1.49,7.47l1.49,8.33,71.07,6.4Z" fill="#ef9a6d"></path>
  <path d="M385.32,573.67s-21-27.25-34.69-8L355,606.72a11.87,11.87,0,0,1-3,9.23L341,628s26.36-6.85,28.84,4.82c0,0,11.52-6.13,15.45-9.92Z" fill="#ef9a6d"></path>
  <path d="M390.72,640c-35.28,14.15-73.76,8.32-73.76,8.32C314.05,639.7,341,628,341,628c28-6.57,28.84,4.82,28.84,4.82,10.35-5.26,15.45-9.92,15.45-9.92C388.09,627.6,390.72,640,390.72,640Z" fill="#6fe648"></path>
  <path d="M391.88,650.5c-.24,3-13.22,2.93-17.64,2.81a14.72,14.72,0,0,0-3,.24c-23.82,4.38-53.45,1.17-53.45,1.17a16.11,16.11,0,0,1-.87-6.41s38.48,5.83,73.76-8.32Z" fill="#1276d3"></path>
  <path d="M458.07,610s-4.47-5.32-3.07-15.11l3.3-10.36s-3-10.6,10.69-16.34l2.37-2.1s7.18-10.89,21.66-4.52a9.42,9.42,0,0,1,5.63,10.07,19.74,19.74,0,0,1-2,5.64s-2.24,5.87-2.24,9.51c0,0-1.68,15.93-10.35,24.88,0,0-5,3.36-8.95,2.24,0,0-1.4,7.55-8.95,6.71a5.14,5.14,0,0,1-6.71,2S455.84,622.53,458.07,610Z" fill="#ef9a6d"></path>
  <path d="M458.07,610.44H458a.5.5,0,0,1-.36-.61l5.87-22.1a.51.51,0,0,1,.62-.35.5.5,0,0,1,.35.61l-5.87,22.09A.49.49,0,0,1,458.07,610.44Z" fill="#cd6d33"></path>
  <path d="M490.93,594.73a.5.5,0,0,1-.49-.39c-.56-2.48-1.61-4.19-3.14-5.09a5.6,5.6,0,0,0-4-.57.49.49,0,0,1-.6-.29c-2.51-6.28-7.72-4.82-7.94-4.76a.52.52,0,0,1-.57-.2c-3.83-5.85-12-4.06-12.08-4a.49.49,0,0,1-.6-.37.5.5,0,0,1,.38-.6c.08,0,8.65-1.92,12.95,4.17,1.35-.26,6.12-.69,8.62,5a6.49,6.49,0,0,1,4.36.76c1.77,1.05,3,3,3.61,5.73a.5.5,0,0,1-.38.6Z" fill="#cd6d33"></path>
  <path d="M475.13,614.36a.39.39,0,0,1-.18,0,.5.5,0,0,1-.28-.65l6.85-17.1a.5.5,0,0,1,.93.37l-6.85,17.11A.51.51,0,0,1,475.13,614.36Z" fill="#cd6d33"></path>
  <path d="M466.18,621.07a.32.32,0,0,1-.13,0,.5.5,0,0,1-.35-.61l6.87-25a.5.5,0,0,1,1,.26l-6.86,25A.5.5,0,0,1,466.18,621.07Z" fill="#cd6d33"></path>
  <path d="M330.08,451.41l17.29,50.43a3.17,3.17,0,0,0,3.16,2.13l28.35-1.5a3.16,3.16,0,0,0,2.81-4.23L363.17,447.1a3.81,3.81,0,0,0-3.73-2.51l-25.34,1A4.43,4.43,0,0,0,330.08,451.41Z" fill="#955f79"></path>
  <g opacity="0.2">
    <ellipse cx="346.2" cy="456.05" rx="3.05" ry="2.87"></ellipse>
  </g>
  <path d="M379.25,502.19a.51.51,0,0,1-.47-.32l-18.61-49.29a4.88,4.88,0,0,0-4.81-3.17L330,450.53a.47.47,0,0,1-.53-.47.5.5,0,0,1,.48-.52l25.34-1.13a5.85,5.85,0,0,1,5.79,3.82l18.61,49.28a.5.5,0,0,1-.29.65Z" fill="#fff"></path>
  <rect x="376.33" y="369.13" width="47.72" height="70.37" rx="23.86" transform="translate(-120.81 175.89) rotate(-21.62)" fill="#ef9a6d"></rect>
  <path d="M372.1,391.61s5.83,2.91,10.75-1.57c0,0,8.29,7.62,17.48,0,0,0,5.82,6.5,12.77.9,0,0,4.25,3.58,8.51,2.69l12.32,36.29s9,9.19,13.89-4c0,0,7.17-2.47,5.15-9.86,0,0,7.85-3.14,4.48-13.66,0,0,5.38-4-.44-10.09,0,0,3.13-4.7-2.24-9.63,0,0,1.34-5.82-3.81-8.29,0,0,1.34-5.6-5.15-6.94,0,0-.68-5.38-6.95-5.83,0,0-.45-7.84-8.06-6.27,0,0-5.6-7.62-15-4.26,0,0-4.48-6.27-14.57-2.24,0,0-9.4-5.15-14.33,4.26,0,0-11.2-.45-12.1,7.62,0,0-7.84-.23-8.29,8.51,0,0-7.17,2.69-4.7,11.87,0,0-6.05,3.14-1.12,11.88,0,0-4.48,7.17,1.79,12.09,0,0-2.47,7.4,3.13,11.88,0,0-2.24,8.51,5.83,10.08,0,0,1.12,10.75,13.44,9.63,0,0,.67,6.27,9.63,4.71,0,0,5,5.39,9.93-2.68,0,0-14.57,1.07-22.25-15l-8.35-21.06A25.28,25.28,0,0,1,372.1,391.61Z" fill="#360f12"></path>
  <ellipse cx="424.62" cy="395.66" rx="6.61" ry="9.24" transform="translate(-109.98 169.73) rotate(-20.07)" fill="#ef9a6d"></ellipse>
  <path d="M331.76,506.58s1.94-3.11-.58-7.58c0,0-2.53-5.83.58-15l-.15-8.33a5.57,5.57,0,0,1,2.55-4.77c3.27-2.08,9-5,13.2-3a1.84,1.84,0,0,1,1.08,1.92c-.22,1.42-1.8,3.77-8.18,6.77a.89.89,0,0,0-.51.84l.12,3.33a.88.88,0,0,0,1.34.73c6-3.66,30.82-18.06,24-2.31,0,0,5.83,1.75-2.14,8.74a24.09,24.09,0,0,0-11,13.23.33.33,0,0,0,.11.37c.39.27,1.63.49,5.27-2.13l5.71-4.83a2.59,2.59,0,0,1,3.56.2h0a2.6,2.6,0,0,1,.05,3.5c-2.48,2.79-7.4,8.16-10.94,10.92A7.22,7.22,0,0,0,353,514.3,38.13,38.13,0,0,1,350.22,525l-5,12.57s-11.15,5.89-12.9-.71c0,0-2.72-14-2.53-20.41C329.81,516.49,330.79,510.08,331.76,506.58Z" fill="#ef9a6d"></path>
  <path d="M352.66,509.47c-4.39,0-6.31-2.27-6.93-3.23-2.58,1-4.68,1-6.25-.1-2.44-1.68-2.75-5.36-2.78-6.68-4.8-.64-5.23-7.7-5.25-8a.51.51,0,0,1,.48-.53.47.47,0,0,1,.52.47c0,.07.43,6.94,4.77,7.11a.5.5,0,0,1,.48.52s-.13,4.59,2.35,6.3c1.34.92,3.26.86,5.7-.17a.49.49,0,0,1,.65.25c.07.15,1.7,3.56,7.47,3a.52.52,0,0,1,.54.45.5.5,0,0,1-.45.55C353.5,509.45,353.07,509.47,352.66,509.47Z" fill="#cd6d33"></path>
  <path d="M346.14,488.81a.5.5,0,0,1-.21-.95l20.21-9.53a.5.5,0,0,1,.66.24.5.5,0,0,1-.24.67l-20.21,9.52A.54.54,0,0,1,346.14,488.81Z" fill="#cd6d33"></path>
  <path d="M608.64,456.17s-1-21.91,1.45-32.75a10.82,10.82,0,0,1,2.51-4.91c4.9-5.52,20.13-22.34,33.06-33.19a35.73,35.73,0,0,0-23.56,4.38v7.4l-2.52-5.89s-14.14,8.42-12.79,31.47l.67,22.22Z" fill="#1276d3"></path>
  <g opacity="0.2">
    <path d="M608.64,456.17s-1-21.91,1.45-32.75a10.82,10.82,0,0,1,2.51-4.91c4.9-5.52,20.13-22.34,33.06-33.19a35.73,35.73,0,0,0-23.56,4.38v7.4l-2.52-5.89s-14.14,8.42-12.79,31.47l.67,22.22Z"></path>
  </g>
  <path d="M632.62,474.43a22,22,0,0,1-18.08,21.62h0a22.58,22.58,0,0,1-3.88.34,22,22,0,0,1-16.44-36.53l23.79-.17,8.87-.06A21.85,21.85,0,0,1,632.62,474.43Z" fill="#6fe648"></path>
  <g opacity="0.2">
    <path d="M632.62,474.43a22,22,0,0,1-18.08,21.62c15-14.5,4.18-35.05,3.47-36.36l8.87-.06A21.85,21.85,0,0,1,632.62,474.43Z"></path>
  </g>
  <path d="M606,459.79v-2a9.59,9.59,0,0,0-2.87-7L569.88,418.1s16-2,23.62,4.36l.15,8.7,2.64-6.84s14.3,6.06,13.06,35.43Z" fill="#1276d3"></path>
  <path d="M613.85,459.73l1.83-14.89A5,5,0,0,1,617,442c4.76-5.1,23.59-25.08,34.55-34.14,0,0-12.62-1.18-23.89,4.55l-.34,7.91-2.53-6.06s-12.28,6.9-12.62,31v14.5Z" fill="#1276d3"></path>
  <ellipse cx="402.76" cy="409.31" rx="2.08" ry="2.91" transform="translate(-142.93 230.5) rotate(-27.32)" fill="#360f12"></ellipse>
  <ellipse cx="383.18" cy="416.74" rx="2.08" ry="2.91" transform="translate(-148.53 222.35) rotate(-27.32)" fill="#360f12"></ellipse>
  <path d="M393.61,422.36a.46.46,0,0,1-.23-.06.5.5,0,0,1-.25-.3c-1-3.32-3.2-11.1-3.2-11.7a.5.5,0,0,1,1,0c.06.58,1.82,6.8,3,10.93l3.52-1.13a.5.5,0,0,1,.63.32.51.51,0,0,1-.33.63l-4,1.29Zm-2.68-12.06h0Z" fill="#cd6d33"></path>
  <path d="M399.62,431.19a13.31,13.31,0,0,1-3.81-.62l-.26-.08a.48.48,0,0,1-.47-.5.53.53,0,0,1,.54-.49,1.79,1.79,0,0,1,.48.11c4.32,1.32,7.47.41,9.35-2.7a.49.49,0,0,1,.68-.17.48.48,0,0,1,.17.68A7.43,7.43,0,0,1,399.62,431.19Z" fill="#cd6d33"></path>
  <path d="M382.53,407.35a12.8,12.8,0,0,0-3.89,6.37" fill="#360f12"></path>
  <path d="M378.64,414.22h-.1a.5.5,0,0,1-.4-.58A13.31,13.31,0,0,1,382.2,407a.52.52,0,0,1,.71.06.49.49,0,0,1-.06.7,12.4,12.4,0,0,0-3.72,6.09A.5.5,0,0,1,378.64,414.22Z" fill="#360f12"></path>
  <path d="M407.17,403.49a.5.5,0,0,1-.24-.06c-4.37-2.47-9.85-1.26-9.91-1.25a.5.5,0,0,1-.22-1c.24-.06,5.91-1.31,10.62,1.35a.5.5,0,0,1-.25.93Z" fill="#360f12"></path>
</svg>
