<?xml version="1.0" encoding="UTF-8"?>
<svg xmlns="http://www.w3.org/2000/svg" id="a" width="865.76" height="682.89" viewBox="0 0 865.76 682.89">
  <g>
    <g>
      <ellipse cx="575.57" cy="462.54" rx="126.16" ry="125.6" fill="#fff6b3"></ellipse>
      <path d="M575.57,588.64c-69.84,0-126.66-56.57-126.66-126.1s56.82-126.1,126.66-126.1,126.67,56.57,126.67,126.1-56.82,126.1-126.67,126.1Zm0-251.2c-69.29,0-125.66,56.12-125.66,125.1s56.37,125.1,125.66,125.1,125.67-56.12,125.67-125.1-56.37-125.1-125.67-125.1Z"></path>
    </g>
    <path d="M603.87,350.48c-3.5,0-7.59-.44-11.51-1.19-5.16-.99-9.91-2.46-13.37-4.14-2.58-1.25-5.58-3.18-5.19-5.24,.7-3.64,11.19-3.67,20.71-1.84,9.52,1.83,19.26,5.73,18.56,9.38h0c-.41,2.14-4.21,3.04-9.2,3.04Zm-20.76-12.6c-4.92,0-8.07,.88-8.33,2.22-.21,1.09,1.52,2.65,4.64,4.15,3.39,1.64,8.05,3.08,13.12,4.06,11,2.11,19.12,1.14,19.54-1.05,.42-2.19-6.77-6.1-17.76-8.21-4.26-.82-8.1-1.17-11.22-1.17Z"></path>
    <path d="M609.59,359.38c-5.45,0-11.52-.44-17.77-1.31-18.35-2.56-36.8-8.92-35.94-15.14,.87-6.22,20.36-7.3,38.71-4.74,9.88,1.38,19.03,3.66,25.78,6.43,4.91,2.01,10.66,5.16,10.16,8.71-.49,3.55-6.88,5.01-12.16,5.6-2.66,.3-5.62,.45-8.78,.45Zm-32.76-21.52c-11.96,0-19.54,2.18-19.96,5.2-.6,4.32,13.35,10.99,35.09,14.01,9.8,1.36,19.14,1.67,26.3,.86,6.86-.78,10.97-2.51,11.28-4.75h0c.31-2.24-3.17-5.03-9.55-7.65-6.67-2.74-15.74-5-25.54-6.36-6.53-.91-12.48-1.31-17.62-1.31Z"></path>
    <path d="M615.4,370.8c-5.17,0-11.16-.36-18.09-1.19-.34-.02-37.75-2.27-65.53-25.08-.21-.18-.24-.49-.07-.7,.18-.21,.49-.24,.7-.07,27.52,22.6,64.61,24.84,64.98,24.86,44.22,5.33,49.22-9.19,49.27-9.34,.08-.26,.36-.42,.62-.33,.26,.08,.41,.36,.33,.62-.17,.54-3.85,11.23-32.21,11.23Z"></path>
    <path d="M616.4,384.78c-6.35,0-13.56-.26-21.74-.85-.35-.02-36.64-2.28-87.76-26.35-.25-.12-.36-.42-.24-.67,.12-.25,.42-.36,.67-.24,50.92,23.98,87.04,26.24,87.39,26.26,62.95,4.56,67.65-10.94,67.69-11.1,.07-.27,.35-.43,.6-.36,.27,.07,.43,.33,.37,.6-.14,.59-3.57,12.71-46.98,12.71Z"></path>
    <path d="M626.43,402.45c-16.1,0-37.81-2.5-66.82-9.87-.44-.12-43.62-12.17-65.41-26.04-.23-.15-.3-.46-.15-.69,.15-.23,.46-.3,.69-.15,21.66,13.79,64.7,25.79,65.13,25.92,51.86,13.18,80.21,10.72,94.86,6.34,15.81-4.72,19.45-12.63,19.49-12.71,.11-.25,.41-.37,.66-.26,.25,.11,.37,.4,.26,.66-.15,.34-3.79,8.34-19.95,13.22-6.57,1.98-15.87,3.58-28.76,3.58Z"></path>
    <path d="M614.32,416.97c-14.42,0-25.05-1.04-25.33-1.07-73.91-9.57-105.22-38.8-105.52-39.1-.2-.19-.21-.51-.02-.71,.19-.2,.51-.21,.71-.02,.31,.29,31.41,29.31,104.95,38.83,.7,.07,71.97,7.04,96.17-15.52,.2-.19,.52-.18,.71,.02,.19,.2,.18,.52-.02,.71-15.15,14.13-48.33,16.85-71.63,16.85Z"></path>
    <path d="M636.49,438.78c-22.5,0-42.81-2.67-44.52-2.91-53.58-9.19-82.29-22.24-96.95-31.58-15.97-10.18-19.16-18.1-19.29-18.43-.1-.26,.03-.55,.29-.65,.26-.1,.55,.03,.65,.29,.12,.32,13.54,31.91,115.46,49.38,.84,.11,86.13,11.34,103.08-12.12,.16-.22,.47-.28,.7-.11,.22,.16,.27,.47,.11,.7-8.93,12.37-35.47,15.43-59.52,15.43Z"></path>
    <path d="M628.24,458.81c-23.66,0-43.18-2.24-43.59-2.29-57.21-9.48-87.27-22.73-102.41-32.17-16.52-10.3-19.38-18.29-19.5-18.63-.09-.26,.05-.54,.31-.63,.26-.09,.54,.05,.63,.31,.11,.32,12.3,32.11,121.11,50.13,.82,.1,84.73,9.72,115.52-11.24,.23-.15,.54-.1,.69,.13,.16,.23,.1,.54-.13,.69-16.21,11.04-46.88,13.69-72.64,13.69Z"></path>
    <path d="M632.53,478.54c-34.9,0-66.35-4.62-66.88-4.7-53.6-9.65-80.7-22.48-93.99-31.55-14.53-9.91-16.25-17.48-16.32-17.79-.06-.27,.12-.53,.39-.59,.27-.06,.53,.12,.59,.38,.06,.3,7.66,30.23,109.49,48.56,.89,.13,91.27,13.42,135.58-5.3,.25-.1,.55,.01,.66,.27,.11,.25-.01,.55-.27,.66-18.41,7.77-44.69,10.06-69.25,10.06Z"></path>
    <g>
      <path d="M675.72,482.53l-21.3,16.35s38.3,18.07,25.18,72.94c0,0,41.44-22.18,67.35-71.65l-13.05-15.17-58.18-2.47Z" fill="#fbb2c5"></path>
      <path d="M678.85,572.79l.26-1.08c6.73-28.13-.4-46.31-7.56-56.6-7.76-11.16-17.25-15.73-17.34-15.77l-.74-.35,22.1-16.96h.18s58.39,2.49,58.39,2.49l13.41,15.6-.16,.3c-25.69,49.04-67.14,71.64-67.56,71.86l-.98,.53Zm-23.5-73.99c2.39,1.3,10.32,6.12,16.99,15.69,7.2,10.33,14.38,28.44,8,56.34,6.41-3.73,42.66-26.24,66-70.59l-12.69-14.75-57.78-2.45-20.54,15.77Z"></path>
    </g>
    <g>
      <ellipse cx="306.57" cy="545.16" rx="41.88" ry="42.52" fill="#fff6b3"></ellipse>
      <path d="M306.57,588.18c-23.37,0-42.38-19.3-42.38-43.02s19.01-43.02,42.38-43.02,42.38,19.3,42.38,43.02-19.01,43.02-42.38,43.02Zm0-85.04c-22.81,0-41.38,18.85-41.38,42.02s18.56,42.02,41.38,42.02,41.38-18.85,41.38-42.02-18.56-42.02-41.38-42.02Z"></path>
    </g>
    <g>
      <path d="M294.49,536.73h12.07c4.37,0,7.91,3.54,7.91,7.91h0c0,4.37-3.54,7.91-7.91,7.91h-12.07v-15.82h0Z" fill="#fff"></path>
      <path d="M306.57,553.05h-12.57v-16.82h12.57c4.64,0,8.41,3.77,8.41,8.41s-3.77,8.41-8.41,8.41Zm-11.57-1h11.57c4.08,0,7.41-3.32,7.41-7.41s-3.32-7.41-7.41-7.41h-11.57v14.82Z"></path>
    </g>
    <g>
      <ellipse cx="262.8" cy="545.3" rx="36.18" ry="40.32"></ellipse>
      <path d="M262.8,586.12c-20.22,0-36.68-18.31-36.68-40.82s16.45-40.82,36.68-40.82,36.68,18.31,36.68,40.82-16.45,40.82-36.68,40.82Zm0-80.64c-19.67,0-35.68,17.86-35.68,39.82s16.01,39.82,35.68,39.82,35.68-17.86,35.68-39.82-16-39.82-35.68-39.82Z"></path>
    </g>
    <g>
      <ellipse cx="256.44" cy="545.3" rx="36.18" ry="40.32" fill="#fff6b3"></ellipse>
      <path d="M256.44,586.12c-20.22,0-36.68-18.31-36.68-40.82s16.45-40.82,36.68-40.82,36.68,18.31,36.68,40.82-16.45,40.82-36.68,40.82Zm0-80.64c-19.67,0-35.68,17.86-35.68,39.82s16,39.82,35.68,39.82,35.68-17.86,35.68-39.82-16.01-39.82-35.68-39.82Z"></path>
    </g>
    <g>
      <ellipse cx="258.28" cy="546.39" rx="17.23" ry="21.81"></ellipse>
      <path d="M258.28,568.7c-9.78,0-17.73-10.01-17.73-22.31s7.96-22.31,17.73-22.31,17.73,10.01,17.73,22.31-7.96,22.31-17.73,22.31Zm0-43.62c-9.23,0-16.73,9.56-16.73,21.31s7.51,21.31,16.73,21.31,16.73-9.56,16.73-21.31-7.51-21.31-16.73-21.31Z"></path>
    </g>
    <g>
      <path d="M444.88,426.37c-14.61,21.05-53.98,88.71-53.98,88.71-12.39,1.86-37.37,1.45-37.37,1.45l13.63-58.42c1.63-6.53,13.72-16.67,18.71-20.63,.72-.58,.35-1.75-.58-1.79l-54.25-2.76-6.19-13.21,30.75-48.3c47.68,2.69,79.05,18.79,79.05,18.79,7.01,3.81,10.64,19.76,12.07,27.86,.51,2.91-.16,5.89-1.84,8.31Z" fill="#c0ff80"></path>
      <path d="M359.34,517.06c-3.47,0-5.74-.04-5.82-.04h-.62s13.77-59.03,13.77-59.03c1.67-6.68,13.76-16.85,18.89-20.91,.25-.2,.19-.48,.16-.56-.02-.08-.13-.33-.46-.35l-54.55-2.77-6.44-13.73,31.06-48.78,.29,.02c47.24,2.66,78.94,18.68,79.25,18.84,7.09,3.85,10.77,19.33,12.33,28.21,.54,3.04-.15,6.12-1.92,8.68-14.44,20.79-53.56,88-53.96,88.68l-.12,.21-.24,.04c-8.62,1.29-23.46,1.49-31.63,1.49Zm-5.18-1.03c3.9,.05,25.24,.22,36.43-1.41,2.43-4.17,39.82-68.29,53.88-88.54h0c1.62-2.34,2.25-5.16,1.76-7.94-1.23-7.01-4.85-23.72-11.81-27.5-.3-.16-31.7-16.01-78.55-18.71l-30.45,47.82,5.95,12.69,53.95,2.74c.63,.03,1.17,.44,1.36,1.04,.2,.6,0,1.25-.49,1.65-3.94,3.12-16.9,13.81-18.54,20.36l-13.49,57.8Z"></path>
    </g>
    <g>
      <path d="M112.04,548.52l-29.28-12.1s-10.68-20.83-9.32-30.21c.2-1.38,1.08-2.58,2.28-3.28l6.48-3.78s19.77,13.31,30.03,14.32l9.76,27.48-9.95,7.57Z" fill="#fab1c4"></path>
      <path d="M112.12,549.09l-29.72-12.28-.08-.16c-.44-.86-10.74-21.08-9.37-30.51,.22-1.5,1.14-2.83,2.53-3.64l6.75-3.94,.26,.17c.2,.13,19.78,13.25,29.8,14.23l.32,.03,.11,.3,9.89,27.82-10.47,7.97Zm-29-13.06l28.85,11.92,9.43-7.18-9.54-26.84c-9.81-1.17-27.24-12.56-29.68-14.19l-6.21,3.62c-1.11,.65-1.87,1.74-2.04,2.92-1.26,8.68,8.2,27.78,9.19,29.74Z"></path>
    </g>
    <g>
      <path d="M261.86,538.95c-.35,3.48-4.46,42.84-13.85,49.82,0,0-21.18,11.75-47.76-3.47l-88.21-36.78s-13.29-26.58,.19-35.05l34.28-6.36s11.75-1.93,20.99,4.04l19.81,9.98c1.76,.96,3.39,2.17,4.67,3.71,4.58,5.57,7.77,13.76,7.77,13.76,10.12,22.18,46.53,7.78,62.11,.33Z" fill="#c0ff80"></path>
      <path d="M228.07,593.55c-7.91,0-17.6-1.82-28.06-7.81l-88.32-36.83-.08-.17c-.55-1.1-13.34-27.09,.37-35.7l.17-.07,34.28-6.36c.5-.08,12.05-1.89,21.36,4.11l19.76,9.96c2.04,1.12,3.61,2.37,4.83,3.84,4.58,5.57,7.82,13.82,7.85,13.9,2.18,4.77,5.79,8.12,10.74,9.91,14.86,5.4,38.13-3.85,50.68-9.85l.8-.38-.09,.88c-.44,4.39-4.58,43.13-14.04,50.17-.16,.09-8.11,4.38-20.25,4.38Zm-115.65-45.42l88.03,36.71c26.07,14.92,47.12,3.61,47.33,3.49,8.61-6.42,12.74-41.38,13.5-48.55-12.86,6.06-35.77,14.91-50.65,9.5-5.21-1.89-9.02-5.41-11.32-10.46-.04-.11-3.22-8.21-7.7-13.65-1.14-1.37-2.62-2.55-4.52-3.59l-19.79-9.98c-9.02-5.82-20.58-4.01-20.69-3.99l-34.18,6.34c-12.27,7.84-1.08,31.95,0,34.19Z"></path>
    </g>
    <path d="M194.86,529.38c-.07,0-.15-.02-.22-.05l-31.65-15.5c-3.89-1.91-8.21-2.54-12.49-1.84l-37.79,6.22c-.26,.05-.53-.14-.57-.41-.04-.27,.14-.53,.41-.57l37.79-6.22c4.48-.74,9.01-.07,13.09,1.93l31.65,15.5c.25,.12,.35,.42,.23,.67-.09,.18-.26,.28-.45,.28Z"></path>
    <g>
      <ellipse cx="507.7" cy="339.48" rx="44.21" ry="44.79" fill="#092cf6"></ellipse>
      <path d="M507.7,384.77c-24.65,0-44.71-20.32-44.71-45.29s20.05-45.29,44.71-45.29,44.71,20.32,44.71,45.29-20.06,45.29-44.71,45.29Zm0-89.58c-24.1,0-43.71,19.87-43.71,44.29s19.61,44.29,43.71,44.29,43.71-19.87,43.71-44.29-19.61-44.29-43.71-44.29Z"></path>
    </g>
    <g>
      <path d="M354.08,242.85l42.5,17.42s22.97,8.45,61.78,18.22l30.36,4.49s19.38-.21,33.18,6.12c2.79,1.28,5.31,3.07,7.48,5.24l8.73,8.73c1.59,1.59,1.59,4.17,0,5.76h0c-1.57,1.57-4.11,1.6-5.7,.06-4.55-4.4-14.01-12.39-23.34-12.97,0,0-.02,0-.01,.01,.16,.33,3.07,6.45-1.95,7.76,0,0-4.97,1.34-9.95-7.46,0,0-6.12,.96-10.71,4.02,0,0-7.3-1.72-33.61,1.61,0,0-29.97,3.33-53.28-3,0,0-41.29-10.66-60.94-16.98l-9.32-10.66,24.79-28.36Z" fill="#fab1c4"></path>
      <path d="M535.22,310.52c-1.14,0-2.29-.42-3.16-1.27-4.56-4.42-13.4-11.82-22.22-12.77,.47,1.22,1.15,3.59,.3,5.45-.51,1.12-1.49,1.87-2.9,2.24-.21,.06-5.28,1.31-10.33-7.39-1.33,.25-6.34,1.32-10.17,3.88l-.18,.12-.21-.05c-.07-.02-7.6-1.65-33.43,1.62-.31,.03-30.34,3.27-53.47-3.01-.41-.1-41.53-10.73-60.96-16.99l-.13-.04-9.7-11.09,25.31-28.96,.33,.14,42.5,17.42c.21,.08,23.38,8.55,61.71,18.19l30.31,4.48c.11-.02,19.58-.14,33.32,6.16,2.81,1.29,5.37,3.08,7.63,5.34l8.73,8.73c1.78,1.78,1.78,4.69,0,6.47-.89,.89-2.07,1.34-3.24,1.34Zm-26.43-15.11h.3c9.41,.6,18.86,8.48,23.66,13.12,1.39,1.34,3.63,1.32,5-.05,1.39-1.39,1.39-3.66,0-5.06l-8.73-8.73c-2.17-2.17-4.64-3.9-7.33-5.13-13.54-6.21-32.75-6.08-32.97-6.08l-30.44-4.49c-38.44-9.67-61.65-18.16-61.88-18.24l-42.19-17.29-24.27,27.76,8.95,10.22c19.46,6.26,60.37,16.83,60.78,16.93,22.96,6.23,52.8,3.02,53.1,2.98,23.99-3.04,32.16-1.9,33.56-1.64,4.6-3,10.49-3.94,10.74-3.98l.34-.05,.17,.3c4.69,8.3,9.34,7.23,9.38,7.22,1.12-.29,1.86-.84,2.25-1.69,.96-2.09-.55-5.23-.62-5.36l-.12-.26,.31-.49Z"></path>
    </g>
    <g>
      <path d="M354.77,241.98s-3.05,15.02-17.13,26.28l-33.79-24.64-3.05-27.45,14.84-11.85s25.35,18.04,39.13,37.67Z" fill="#c0ff80"></path>
      <path d="M337.66,268.89l-34.28-24.99-3.11-27.95,15.35-12.26,.31,.22c.25,.18,25.58,18.31,39.25,37.79l.12,.18-.04,.21c-.03,.15-3.25,15.33-17.31,26.57l-.3,.24Zm-33.33-25.54l33.3,24.28c12.64-10.27,16.18-23.73,16.61-25.55-12.78-18.11-35.67-35.03-38.58-37.14l-14.33,11.44,3,26.96Z"></path>
    </g>
    <g>
      <path d="M714.93,391.05l2.01,16.54c3.27-.87,7.06-1.64,11.29-2.09,7.12-.77,13.36-.41,18.29,.25-1.45-8.74-2.9-17.49-4.34-26.23l-9.86-9.36-17.38,20.89Z" fill="#fab1c4"></path>
      <path d="M716.51,408.22l-2.1-17.33,17.86-21.46,10.37,9.84,4.48,27.07-.67-.09c-6.04-.81-12.15-.9-18.17-.25-3.77,.41-7.54,1.1-11.21,2.08l-.55,.15Zm-1.06-17.02l1.91,15.76c3.54-.91,7.18-1.57,10.81-1.96,5.88-.63,11.84-.57,17.74,.17l-4.21-25.4-9.35-8.87-16.9,20.31Z"></path>
    </g>
    <g>
      <path d="M731.42,524.69s-21.05-27.53-55.7-42.16c0,0-11.4-15.71-.43-30.55l15.71-17.86,25.94-26.53s12.57-4.38,29.57-1.84c0,0,9.47,15.89,13.13,27.5l-1.51,31.85,.07,8.58s-6.74,19.4-11.26,26.5c0,0-14.36-.96-25.56-4.14-.32-.09-.52,.34-.24,.52,3.98,2.62,13.8,9.41,18.7,15.66,0,0-.84,2.42-8.43,12.47Z" fill="#c0ff80"></path>
      <path d="M731.42,525.52l-.4-.52c-.21-.27-21.38-27.6-55.49-42l-.13-.05-.08-.11c-.12-.16-11.49-16.18-.43-31.15l15.74-17.89,26.04-26.63,.11-.04c.13-.05,12.88-4.4,29.81-1.86l.23,.04,.12,.2c.09,.16,9.54,16.07,13.17,27.61l.03,.08v.09s-1.51,31.85-1.51,31.85l.07,8.64-.03,.08c-.28,.79-6.81,19.53-11.31,26.6l-.16,.25-.3-.02c-.14,0-13.5-.93-24.42-3.81,4.49,3.02,13.2,9.25,17.74,15.06l.17,.21-.09,.26c-.04,.1-.95,2.61-8.5,12.6l-.4,.52Zm-55.37-43.39c31.69,13.43,52.26,37.9,55.36,41.75,5.89-7.83,7.48-10.77,7.86-11.57-4.91-6.13-14.48-12.74-18.4-15.32-.33-.22-.45-.63-.29-.99,.16-.36,.56-.54,.94-.43,10.14,2.88,23.05,3.94,25.16,4.1,4.29-6.93,10.55-24.7,11.02-26.06l-.07-8.49,1.5-31.78c-3.39-10.71-11.82-25.22-12.93-27.11-15.73-2.3-27.73,1.4-28.99,1.82l-25.85,26.44-15.69,17.84c-10.13,13.71-.59,28.4,.38,29.82Z"></path>
    </g>
    <path d="M721.14,497.06c-.1,0-.19-.03-.28-.08-13.78-9.28-31.71-16.88-31.89-16.95-.25-.11-.37-.4-.27-.66,.11-.25,.4-.37,.66-.27,.18,.08,18.2,7.71,32.06,17.04,.23,.15,.29,.47,.14,.69-.1,.14-.25,.22-.42,.22Z"></path>
    <path d="M718.02,495.16c-.09,0-.18-.02-.26-.08-.23-.15-.31-.46-.16-.69,7.18-11.53,8.57-23.86,8.59-23.99,.03-.27,.29-.47,.55-.44,.27,.03,.47,.28,.44,.55-.01,.12-1.43,12.68-8.73,24.41-.09,.15-.26,.24-.42,.24Z"></path>
    <path d="M748.44,477.18s-.06,0-.09,0c-45.03-8.21-41.51-32.08-41.47-32.32,.05-.27,.3-.46,.58-.41,.27,.04,.46,.3,.41,.58-.04,.23-3.33,23.15,40.67,31.17,.27,.05,.45,.31,.4,.58-.04,.24-.25,.41-.49,.41Z"></path>
    <path d="M675.37,509.54c-.21,0-.4-.13-.47-.34-3.6-10.58-14.34-14.25-14.45-14.29-.26-.09-.4-.37-.32-.63,.09-.26,.36-.41,.63-.32,.11,.04,11.32,3.86,15.08,14.92,.09,.26-.05,.55-.31,.63-.05,.02-.11,.03-.16,.03Z"></path>
    <path d="M679.57,498.36c-.13,0-.27-.05-.37-.16-5.85-6.3-13.81-7.06-13.89-7.07-.28-.02-.48-.27-.46-.54,.02-.28,.28-.48,.54-.46,.34,.03,8.42,.79,14.54,7.38,.19,.2,.18,.52-.03,.71-.1,.09-.22,.13-.34,.13Z"></path>
    <g>
      <path d="M679.59,571.83c-108.48,71.17-128.29-91.21-130.09-108.69-.09-.91-.75-1.65-1.64-1.85-.98-.23-1.98,.26-2.41,1.18-14.55,31.01-46.49,61.29-46.49,61.29-18.59-5.87-24.72-14.76-31.07-21.77l50.54-90.25c13.99-24.65,23.31-23.64,23.31-23.64,23.98-.67,95.24,120.88,95.24,120.88l17.43-10.09c40.4,23.87,25.18,72.95,25.18,72.95Z" fill="#092cf6"></path>
      <path d="M629.65,590.25c-7.96,0-15.46-1.66-22.48-5-19.49-9.26-34.95-31.01-45.97-64.62-8.49-25.91-11.48-50.52-12.19-57.44-.07-.69-.57-1.26-1.25-1.41-.74-.18-1.52,.2-1.84,.9-14.43,30.74-46.28,61.14-46.6,61.44l-.21,.2-.28-.09c-16.69-5.27-23.33-12.86-29.2-19.56-.7-.8-1.39-1.59-2.08-2.36l-.24-.27,.17-.31,50.54-90.25c13.99-24.65,23.4-23.94,23.8-23.9,.07,0,.14,0,.21,0,23.63,0,89.78,111.57,95.16,120.7l17.25-9.99,.25,.15c40.28,23.8,25.55,73.03,25.4,73.53l-.05,.17-.15,.1c-18.28,11.99-35.08,18.01-50.22,18.01Zm-82.26-129.52c.2,0,.4,.02,.59,.07,1.09,.25,1.91,1.17,2.02,2.28,1.04,10.1,11.51,99.36,57.6,121.26,19.97,9.49,44.04,5.17,71.57-12.84,.91-3.18,13.35-49.3-24.75-72.05l-17.61,10.2-.25-.43c-.71-1.21-71-120.64-94.6-120.64-.06,0-.13,0-.19,0-.14-.02-9.31-.53-22.89,23.39l-50.36,89.94c.61,.68,1.23,1.39,1.85,2.1,5.75,6.56,12.25,14,28.47,19.17,2.81-2.71,32.44-31.69,46.17-60.94,.44-.94,1.38-1.52,2.38-1.52Z"></path>
    </g>
    <path d="M679.59,572.33s-.03,0-.05,0c-.28-.03-.48-.27-.45-.55,5.41-54.84-28.27-70.02-28.61-70.16-.25-.11-.37-.4-.26-.66,.11-.25,.4-.37,.66-.26,.35,.15,34.7,15.58,29.22,71.18-.03,.26-.24,.45-.5,.45Z"></path>
    <path d="M631.97,576.78c-3.14,0-6.32-.27-9.51-.87-15.36-2.89-28.19-12.87-38.12-29.68-.23-.36-23.55-37.92-32.69-90.14-.04-.29-3.81-27.29-12.6-30.94-.76-.31-1.61-.23-2.28,.23-.68,.46-1.06,1.21-1.04,2.04,.08,3.49,2.03,10.61,10.91,24.7,.06,.08,2.08,2.84,1.73,9.2-.01,.28-.21,.51-.53,.47-.28-.01-.49-.25-.47-.53,.32-5.96-1.54-8.55-1.56-8.58-9.02-14.31-11-21.62-11.08-25.24-.03-1.16,.53-2.23,1.48-2.88,.95-.65,2.16-.77,3.23-.33,9.32,3.87,13.05,30.58,13.21,31.71,9.1,52,32.32,89.4,32.55,89.77,9.79,16.55,22.38,26.38,37.45,29.21,28.47,5.35,56.45-16.27,56.73-16.49,.22-.17,.53-.13,.7,.08s.13,.53-.08,.7c-.25,.2-22.7,17.55-48.01,17.55Z"></path>
    <path d="M548.19,439.04c-.27,0-.5-.22-.5-.49-.32-20.96-11.26-31.17-11.37-31.28-.2-.19-.22-.5-.03-.71s.5-.22,.71-.03c.11,.1,11.37,10.61,11.7,32,0,.28-.22,.5-.49,.51h0Z"></path>
    <path d="M505.34,518.46s-.05,0-.08,0c-15.15-2.31-33.46-21.1-34.23-21.9-.19-.2-.19-.52,.01-.71,.2-.19,.52-.19,.71,.01,.19,.19,18.84,19.35,33.66,21.6,.27,.04,.46,.3,.42,.57-.04,.25-.25,.42-.49,.42Z"></path>
    <path d="M497.76,516.49c-.14,0-.28-.06-.38-.17-.18-.21-.16-.52,.05-.71,.37-.32,36.62-31.84,47.33-55.85,.11-.25,.41-.36,.66-.25,.25,.11,.37,.41,.25,.66-10.8,24.21-47.22,55.88-47.58,56.2-.09,.08-.21,.12-.33,.12Z"></path>
    <path d="M751.51,393.9c-1.13,0-2.19-.23-3.17-.69-4.2-1.97-5.42-7.39-5.47-7.62-.06-.27,.11-.54,.38-.59,.28-.06,.54,.11,.59,.38,.01,.05,1.17,5.17,4.92,6.93,2.17,1.02,4.81,.73,7.86-.85,.14-.1,19.5-13.62,18.61-28.5-.02-.28,.19-.51,.47-.53,.3-.02,.51,.19,.53,.47,.92,15.44-18.27,28.85-19.09,29.41-2.04,1.06-3.92,1.59-5.63,1.59Z"></path>
    <path d="M651.61,547.33c-.26,0-.48-.2-.5-.46-1.55-20.78-14.39-37.42-14.52-37.58-.17-.22-.13-.53,.09-.7,.21-.17,.53-.13,.7,.08,.13,.17,13.15,17.03,14.73,38.12,.02,.28-.19,.51-.46,.54-.01,0-.03,0-.04,0Z"></path>
    <g>
      <path d="M498.97,523.76l-17.99,17.85c-10.58-5.49-23.98-17.4-23.98-17.4l10.9-22.22c6.34,7.01,12.48,15.91,31.07,21.77Z" fill="#fff"></path>
      <path d="M481.07,542.23l-.32-.17c-10.51-5.46-23.95-17.35-24.08-17.47l-.28-.25,11.39-23.23,.5,.55c.69,.77,1.39,1.56,2.09,2.37,5.78,6.6,12.33,14.08,28.75,19.26l.79,.25-18.83,18.69Zm-23.46-18.13c1.97,1.72,13.77,11.88,23.27,16.91l17.14-17.01c-16.11-5.25-22.64-12.71-28.42-19.31-.54-.61-1.06-1.21-1.59-1.81l-10.41,21.21Z"></path>
    </g>
    <g>
      <path d="M457,524.22l-15.41,28.25s10.26,6.97,17.89,5.26l21.5-16.12s-11.86-6.45-23.98-17.4Z" fill="#fab1c4"></path>
      <path d="M456.88,558.5c-7.21,0-15.2-5.36-15.57-5.62l-.38-.25,15.93-29.21,.47,.42c11.93,10.78,23.77,17.26,23.88,17.33l.68,.37-22.31,16.67c-.88,.2-1.79,.28-2.71,.28Zm-14.63-6.2c1.9,1.21,10.51,6.34,17.02,4.96l20.8-15.59c-2.65-1.52-12.7-7.51-22.93-16.66l-14.88,27.29Z"></path>
    </g>
    <g>
      <path d="M487.13,573.42s-17.83,8.92-53.19,7.67c0,0-45.43,2.12-69.24-1.24-1.06-.16-2.07-.58-2.86-1.31-.59-.55-1.03-1.24-.67-1.93,.38-.74,1.66-1.49,4.56-2.09,0,0,38.14-9.49,68.1-25.82,3.44-1.88,6.57-4.29,9.25-7.15l10.1-10.78-11.6,21.71s8.74,6.36,17.89,5.26l14.83-10.75,12.83,26.43Z" fill="#c0ff80"></path>
      <path d="M403.16,582.24c-13.23,0-28.02-.41-38.52-1.89-1.23-.18-2.31-.68-3.13-1.44-1.16-1.08-1.06-1.97-.77-2.53,.52-1.01,2.13-1.78,4.91-2.35,.36-.09,38.4-9.66,67.96-25.77,3.42-1.87,6.5-4.24,9.13-7.05l12.7-13.56-13.18,24.66c1.71,1.14,9.27,5.81,17.05,4.94l15.2-11.02,13.3,27.42-.44,.22c-.18,.09-18.35,8.96-53.43,7.72-.23,.01-14.28,.65-30.77,.65Zm47.8-48.37l-7.51,8.01c-2.71,2.89-5.86,5.32-9.38,7.25-29.67,16.18-67.83,25.77-68.22,25.87-3.21,.66-4.03,1.43-4.24,1.83-.07,.13-.28,.55,.57,1.34,.67,.62,1.57,1.03,2.59,1.18,23.49,3.31,68.69,1.25,69.14,1.23,31.81,1.11,49.56-6.08,52.54-7.41l-12.35-25.44-14.45,10.47-.13,.02c-9.23,1.12-17.88-5.09-18.24-5.35l-.35-.26,10.02-18.75Z"></path>
    </g>
    <g>
      <path d="M484.39,586.8h-120.61c-7.2-2.73-2.92-10.12-2.92-10.12l.32-.08c-.36,.7,.08,1.38,.67,1.93,.78,.73,1.8,1.16,2.86,1.31,23.81,3.36,69.24,1.24,69.24,1.24,35.35,1.25,53.19-7.67,53.19-7.67,1.57,3.91,1.97,6.86,1.88,8.98-.1,2.47-2.15,4.41-4.62,4.41Z" fill="#fff"></path>
      <path d="M484.39,587.3h-120.7l-.08-.03c-2.14-.81-3.54-2.1-4.15-3.83-1.16-3.26,.89-6.86,.98-7.01l.11-.18,1.59-.39-.5,.97c-.07,.14-.28,.55,.56,1.34,.67,.62,1.57,1.03,2.59,1.18,23.49,3.31,68.69,1.25,69.14,1.23,34.84,1.22,52.81-7.53,52.99-7.62l.48-.24,.2,.5c1.38,3.43,2.03,6.52,1.92,9.18-.11,2.74-2.36,4.89-5.12,4.89Zm-120.52-1h120.52c2.22,0,4.03-1.73,4.12-3.93,.1-2.4-.46-5.18-1.65-8.28-3.13,1.39-21.04,8.62-52.93,7.49-.42,.02-45.71,2.08-69.29-1.24-1.23-.18-2.31-.68-3.13-1.44-.33-.31-.57-.61-.71-.89-.48,1.22-1.05,3.26-.4,5.1,.51,1.42,1.68,2.49,3.48,3.19Z"></path>
    </g>
    <g>
      <path d="M277.52,177.99l-2.7,8.62s27.2,23.75,29.55,36.87c0,0,6.89-11.37,13.53-23.06l-22.14-28.35s-6.15,5.73-18.24,5.92Z" fill="#fab1c4"></path>
      <path d="M304.11,224.87l-.23-1.3c-2.29-12.8-29.12-36.34-29.39-36.58l-.25-.21,2.91-9.28h.36c11.74-.2,17.85-5.74,17.91-5.8l.4-.37,.34,.43,22.35,28.62-.17,.29c-6.57,11.57-13.47,22.96-13.54,23.07l-.69,1.13Zm-28.72-38.42c2.81,2.48,25.69,22.96,29.19,35.71,1.84-3.06,7.37-12.29,12.72-21.7l-21.61-27.68c-1.57,1.27-7.48,5.44-17.8,5.7l-2.5,7.97Z"></path>
    </g>
    <g>
      <path d="M277.52,177.99s-8.92-1.74-8.5,2.13l5.8,6.49,2.7-8.62Z" fill="#092cf6"></path>
      <path d="M275.03,187.6l-6.49-7.27-.02-.16c-.08-.79,.16-1.48,.71-1.98,2.03-1.86,7.74-.81,8.39-.69l.55,.11-3.13,9.99Zm-5.53-7.69l5.1,5.71,2.27-7.24c-1.91-.3-5.7-.62-6.97,.54-.28,.26-.41,.58-.4,.99Z"></path>
    </g>
    <g>
      <path d="M325.3,295.19l-27.3,68.26h0c-16.31,41.62-43.62,47.96-43.62,47.96-21.16,33.74-75.96-3.48-91.02-14.67-2.48-1.85-3.89-2.98-3.89-2.98,5-25.64,12.66-22.98,12.66-22.98-1-10.32,7.99-9.99,7.99-9.99,3.33-7.32,14.65-10.32,14.65-10.32,3.18-35.92,7.41-61.22,10.51-76.5,3.79-18.7,11.82-36.33,23.77-51.21,19.15-23.83,38.81-29.72,38.81-29.72l13.86,16.23c1.48,1.76,3.32,2.66,3.32,2.66,10.01,6.3,19.2,15.01,19.2,15.01l21.07,68.26Z" fill="#c0ff80"></path>
      <path d="M228.45,425.72c-24.85,0-55.84-21.48-65.4-28.58-2.46-1.83-3.89-2.98-3.9-3l-.24-.19,.06-.3c3.07-15.76,7.19-21.07,10.11-22.75,1.05-.6,1.91-.74,2.5-.71-.19-3.15,.53-5.62,2.16-7.35,2.11-2.24,5.06-2.53,6.05-2.56,3.24-6.61,12.57-9.64,14.5-10.21,3.19-35.95,7.46-61.28,10.48-76.22,3.85-19,12.11-36.78,23.87-51.43,19.03-23.68,38.86-29.83,39.06-29.89l.31-.09,14.07,16.48c1.39,1.65,3.14,2.52,3.16,2.53,9.98,6.28,19.23,15.01,19.32,15.1l.1,.09,.04,.13,21.12,68.43-.07,.16-27.35,68.36c-15.48,39.41-41.17,47.4-43.73,48.1-4.61,7.26-11.11,11.72-19.34,13.27-2.23,.42-4.53,.61-6.89,.61Zm-68.44-32.17c.5,.39,1.77,1.39,3.63,2.79,10.39,7.72,46.26,32.54,71.52,27.79,8-1.5,14.32-5.87,18.78-12.99l.11-.17,.2-.05c.27-.06,27.26-6.79,43.27-47.64l.05-.11,27.2-68-20.98-67.97c-1-.94-9.72-9-19.03-14.86-.03-.01-1.91-.94-3.43-2.76l-13.64-15.97c-2.56,.87-20.73,7.64-38.26,29.45-11.66,14.52-19.85,32.16-23.67,51-3.03,14.96-7.3,40.36-10.5,76.45l-.03,.35-.34,.09c-.11,.03-11.13,3.03-14.33,10.04l-.14,.3h-.33s-3.43-.1-5.63,2.25c-1.53,1.63-2.15,4.04-1.84,7.19l.08,.78-.74-.26s-.99-.3-2.45,.57c-2.21,1.31-6.36,5.88-9.49,21.73Z"></path>
    </g>
    <path d="M208.66,331.54c-.2,0-.39-.12-.47-.32-.1-.26,.03-.55,.28-.65,30.58-11.89,50.31-41.19,50.51-41.48,.15-.23,.46-.29,.69-.14,.23,.15,.29,.46,.14,.69-.2,.3-20.09,29.85-50.98,41.86-.06,.02-.12,.03-.18,.03Z"></path>
    <path d="M194.76,350.97c-.19,0-.37-.11-.46-.29-.11-.25,0-.55,.25-.66,36.54-16.4,60.99-44.28,61.23-44.56,.18-.21,.5-.23,.71-.05,.21,.18,.23,.5,.05,.71-.24,.28-24.84,28.32-61.58,44.81-.07,.03-.14,.04-.21,.04Z"></path>
    <path d="M213.62,360.69c-.1,0-.2-.03-.29-.09-.23-.16-.28-.47-.12-.7,.17-.25,17.43-24.73,45.87-47.82,.21-.17,.53-.14,.7,.07,.17,.21,.14,.53-.07,.7-28.33,23-45.51,47.38-45.68,47.62-.1,.14-.25,.21-.41,.21Z"></path>
    <path d="M220.17,385.82c-2.06,0-4.11-.17-6.15-.5-21.1-3.47-34.21-24.05-34.34-24.26-.15-.23-.08-.54,.16-.69,.24-.15,.54-.08,.69,.16,.13,.2,13.01,20.41,33.66,23.8,12.12,1.99,24.54-2.11,36.91-12.21,.2-.15,18.93-14.57,36.16-44.99,.14-.24,.44-.32,.68-.19,.24,.14,.33,.44,.19,.68-17.34,30.61-36.22,45.14-36.41,45.28-10.52,8.58-21.1,12.92-31.54,12.92Z"></path>
    <path d="M217.29,399.35h-.02c-22.63-.86-45.32-27.97-45.55-28.25-.18-.21-.15-.53,.07-.7,.21-.18,.53-.15,.7,.07,.22,.27,22.63,27.04,44.82,27.88,.28,.01,.49,.24,.48,.52-.01,.27-.23,.48-.5,.48Z"></path>
    <path d="M191.17,397.19c-.08,0-.16-.02-.23-.06-7.74-4.09-17.56-14.05-18.31-15.04-.17-.22-.12-.53,.1-.7,.22-.17,.53-.12,.7,.1,.73,.97,10.36,10.74,17.97,14.76,.24,.13,.34,.43,.21,.68-.09,.17-.26,.27-.44,.27Z"></path>
    <path d="M243.5,413.84c-4.93,0-9.25-.76-9.74-.92-.26-.09-.4-.37-.32-.63,.09-.26,.36-.41,.63-.32,.9,.28,13.35,2.34,20.06-1.02,.25-.12,.55-.02,.67,.22,.12,.25,.02,.55-.22,.67-3.07,1.54-7.26,1.99-11.08,1.99Z"></path>
    <path d="M266.31,207.99c-.16,0-.32-.08-.41-.22l-7.04-10.33c-.16-.23-.1-.54,.13-.69,.23-.15,.54-.1,.69,.13l7.04,10.33c.16,.23,.1,.54-.13,.69-.09,.06-.18,.09-.28,.09Z"></path>
    <g>
      <path d="M284.9,295.08s18.69,31.08,41.71,41.73c2.53,1.17,4.56,3.17,5.89,5.62,3.01,5.52,10.27,14.89,25.04,15.06l96.05,9.02,33.93,18.08c2.06,1.1,4.34,1.73,6.67,1.85l13.75,.7c2.11,.11,3.71-1.97,2.98-3.95-.01-.03-.02-.06-.04-.09h1.46c2.15,0,3.9-1.75,3.9-3.9h0c0-2.15-1.75-3.9-3.9-3.9h-17.31s-13.65-6.58-13.65-6.58l10.31,1.18c2.43,.28,4.56-1.62,4.56-4.07h0c0-2.1-1.59-3.86-3.68-4.07l-8.04-.83c-1.58-.16-3.06-.8-4.26-1.84l-14-12.06s-5.01-3.66-10.23,1.18c-1.43,1.32-3.51,1.66-5.33,.98l-54.16-20.2s-16.4-7.57-32.99-10.01c-2.46-.36-4.58-1.92-5.73-4.13l-20.28-39-52.17,8.53-.49,10.73Z" fill="#fab1c4"></path>
      <path d="M508.09,387.63c-.06,0-.12,0-.18,0l-13.75-.7c-2.39-.12-4.77-.78-6.88-1.9l-33.84-18.03-95.95-9.01c-14.96-.17-22.36-9.67-25.44-15.32-1.33-2.43-3.28-4.3-5.66-5.4-22.89-10.59-41.74-41.61-41.93-41.93l-.08-.13,.51-11.28,.4-.07,52.53-8.59,20.45,39.32c1.08,2.08,3.09,3.53,5.36,3.86,16.47,2.43,32.96,9.98,33.12,10.05l54.12,20.18c1.67,.62,3.56,.28,4.81-.88,5.46-5.06,10.81-1.25,10.87-1.21l14.03,12.09c1.13,.97,2.51,1.57,3.99,1.72l8.04,.83c2.35,.24,4.12,2.21,4.12,4.57,0,1.31-.56,2.56-1.54,3.43-.98,.87-2.29,1.28-3.58,1.14l-7.37-.85,10.88,5.25h17.19c2.43,0,4.4,1.97,4.4,4.4s-1.97,4.4-4.4,4.4h-.8c.16,.91-.06,1.85-.62,2.61-.67,.91-1.72,1.44-2.83,1.44Zm-222.68-92.68c1.34,2.18,19.54,31.29,41.41,41.41,2.58,1.19,4.69,3.21,6.12,5.83,2.97,5.46,10.11,14.63,24.61,14.8l96.19,9.03,.09,.05,33.93,18.08c1.98,1.06,4.21,1.67,6.46,1.79l13.75,.7c.84,.04,1.65-.34,2.16-1.03,.49-.67,.61-1.49,.33-2.25l-.25-.67,.68-.09h1.46c1.88,0,3.4-1.53,3.4-3.4s-1.53-3.4-3.4-3.4l-17.53-.05-16.32-7.87,13.24,1.52c1.02,.12,2.04-.21,2.8-.89,.76-.68,1.2-1.66,1.2-2.68,0-1.85-1.39-3.39-3.23-3.58l-8.04-.83c-1.69-.17-3.26-.85-4.54-1.96l-14-12.06c-.16-.11-4.72-3.32-9.56,1.17-1.52,1.41-3.82,1.83-5.84,1.08l-54.16-20.2c-.2-.09-16.56-7.58-32.88-9.99-2.59-.38-4.87-2.02-6.1-4.39l-20.11-38.68-51.41,8.41-.46,10.17Z"></path>
    </g>
    <polygon points="494.7 383.83 494.6 383.79 477.05 376.23 477.44 375.31 494.89 382.83 510.88 382.59 510.89 383.59 494.7 383.83"></polygon>
    <rect x="475.89" y="360.88" width="1" height="11.02" transform="translate(-56.35 644.55) rotate(-65.13)"></rect>
    <path d="M484.05,297.34c-5.26,0-7.69-4.01-7.72-4.05-.14-.24-.06-.54,.18-.68,.24-.14,.54-.06,.68,.17,.11,.18,2.71,4.43,8.6,3.41,2.42-.48,10.44-1.94,11.76-.28,.17,.22,.14,.53-.08,.7-.22,.17-.53,.14-.7-.08-.64-.81-6.1-.3-10.79,.64-.68,.12-1.32,.17-1.92,.17Z"></path>
    <path d="M509.05,296.41c-.22,0-.42-.15-.48-.37-2.23-8.5-11.3-10.75-11.39-10.78-.27-.06-.43-.33-.37-.6s.33-.43,.6-.37c.1,.02,9.74,2.4,12.12,11.49,.07,.27-.09,.54-.36,.61-.04,.01-.08,.02-.13,.02Z"></path>
    <g>
      <path d="M354.51,379.99s-11.41,35.33-38.1,81l-38.11-3.86s-7.28,61.17-9.28,78.16c0,0-2.74,1.55-7.16,3.66-15.58,7.44-51.99,21.85-62.11-.33,0,0-3.19-8.19-7.77-13.76-1.28-1.55-2.91-2.75-4.67-3.71-1.98-1.09-4.55-3.7-.13-9.11,.58-.71,.92-1.59,.92-2.5l.16-26.95c0-.33-.16-.64-.42-.84-.64-.51-1.78-1.76-1.63-4.33,.02-.33-.1-.66-.36-.89-.63-.58-1.73-1.87-1.09-3.64,.24-.67,.25-1.4,.07-2.09-.22-.86-.58-2.02-1.21-3.18-.77-1.43-2.06-2.49-3.54-3.16-1.25-.56-2.74-1.85-1.69-4.74,.34-.94,.32-1.97-.12-2.87-3.78-7.68-20.37-42.89-14.92-60.11,15.06,11.19,69.86,48.41,91.02,14.67,0,0,27.31-6.33,43.62-47.95h0s25.66,.18,25.66,.18c0,0,21.22-2.51,25.16,1.5,.65,.65,1.44,1.15,2.31,1.44,2.42,.8,6.24,3.6,3.38,13.41Z" fill="#092cf6"></path>
      <path d="M221.32,550.97c-3.82,0-7.45-.5-10.7-1.68-5.21-1.89-9.02-5.41-11.32-10.46-.04-.11-3.22-8.21-7.7-13.65-1.14-1.37-2.62-2.55-4.52-3.59-1.53-.84-2.47-2.01-2.74-3.41-.36-1.84,.47-4.02,2.46-6.46,.52-.63,.81-1.4,.81-2.19l.16-26.95c0-.17-.08-.33-.22-.44-.75-.6-1.99-2-1.83-4.75,.01-.19-.06-.37-.19-.48-1.33-1.22-1.76-2.7-1.23-4.18,.2-.55,.22-1.17,.06-1.79-.29-1.15-.68-2.18-1.17-3.06-.68-1.26-1.82-2.28-3.31-2.95-1.25-.56-3.18-2-1.96-5.37,.31-.84,.27-1.72-.1-2.47-3.47-7.03-20.48-43-14.95-60.48l.21-.67,.56,.42c10.39,7.72,46.26,32.54,71.52,27.79,8-1.5,14.32-5.87,18.78-12.99l.11-.17,.2-.05c.27-.06,27.26-6.79,43.27-47.64l.11-.17,.15-.15h.22s25.66,.18,25.66,.18c.81-.1,21.45-2.49,25.52,1.65,.59,.6,1.32,1.06,2.11,1.32,2.66,.88,6.67,3.87,3.7,14.02h0c-.11,.37-11.74,35.92-38.15,81.12l-.16,.28-.32-.03-37.62-3.81c-.69,5.8-7.33,61.58-9.22,77.67l-.03,.25-.22,.12s-2.81,1.58-7.19,3.68c-9.98,4.77-26.68,11.57-40.76,11.57Zm-57.7-153.4c-4.78,17.36,11.7,52.18,15.09,59.06,.5,1,.55,2.16,.15,3.26-.72,1.98-.24,3.37,1.43,4.11,1.69,.76,3,1.93,3.78,3.38,.52,.96,.95,2.07,1.26,3.29,.21,.82,.18,1.64-.09,2.38-.5,1.38,.25,2.45,.96,3.1,.36,.32,.55,.79,.52,1.29-.13,2.29,.85,3.43,1.44,3.9,.38,.29,.61,.74,.61,1.23l-.16,26.95c0,1.01-.38,2.01-1.04,2.82-1.8,2.2-2.56,4.1-2.26,5.64,.27,1.38,1.37,2.24,2.24,2.72,2.02,1.11,3.59,2.36,4.81,3.83,4.58,5.57,7.82,13.82,7.85,13.9,2.18,4.77,5.79,8.12,10.74,9.91,14.86,5.4,38.13-3.85,50.68-9.85,3.64-1.75,6.17-3.12,6.91-3.52,2.04-17.33,9.25-77.91,9.25-77.91l.06-.49,38.28,3.88c26.13-44.78,37.69-79.98,37.9-80.62,2.73-9.34-.75-12.02-3.06-12.79-.94-.31-1.81-.85-2.51-1.57-3.1-3.14-18.92-2.04-24.75-1.35l-25.39-.18c-15.49,39.22-41.09,47.19-43.65,47.89-4.61,7.26-11.11,11.72-19.34,13.27-2.23,.42-4.53,.61-6.89,.61-24.37,0-54.65-20.66-64.83-28.16Z"></path>
    </g>
    <path d="M178.39,460.22c-.14,0-.28-.06-.38-.17-.18-.21-.16-.52,.05-.71,1.33-1.15,32.83-27.96,51.33-18.52,.25,.13,.34,.43,.22,.67-.13,.25-.43,.34-.67,.22-17.92-9.15-49.9,18.11-50.22,18.38-.09,.08-.21,.12-.33,.12Z"></path>
    <path d="M181.15,465.48c-.17,0-.34-.09-.43-.25-.14-.24-.06-.54,.18-.69l20.18-11.95c.24-.14,.54-.06,.69,.18,.14,.24,.06,.54-.18,.69l-20.18,11.95c-.08,.05-.17,.07-.25,.07Z"></path>
    <path d="M184.77,473.35c-.15,0-.29-.07-.39-.19-.17-.22-.14-.53,.08-.7,1.6-1.26,39.27-30.9,56.17-26.98,.27,.06,.44,.33,.37,.6s-.33,.44-.6,.37c-16.44-3.82-54.94,26.48-55.33,26.79-.09,.07-.2,.11-.31,.11Z"></path>
    <path d="M186.63,476.65c-.25,0-.46-.19-.5-.44-.03-.27,.16-.52,.44-.56,.48-.06,47.64-5.79,61.68-16.75,.21-.17,.53-.13,.7,.09,.17,.22,.13,.53-.09,.7-14.25,11.13-60.22,16.72-62.17,16.95-.02,0-.04,0-.06,0Z"></path>
    <path d="M204.47,492.72c-.07,0-.15-.02-.22-.05-12.48-6.05-16.61-10.41-16.77-10.59-.19-.2-.18-.52,.03-.71,.2-.19,.52-.18,.71,.03,.04,.04,4.2,4.42,16.48,10.37,.25,.12,.35,.42,.23,.67-.09,.18-.26,.28-.45,.28Z"></path>
    <path d="M200.94,483.7s-.02,0-.02,0l-12.68-.63c-.28-.01-.49-.25-.47-.52s.27-.5,.52-.47l12.68,.63c.28,.01,.49,.25,.47,.52-.01,.27-.23,.48-.5,.48Z"></path>
    <path d="M262.87,504.47c-.07,0-.13-.01-.2-.04-.25-.11-.37-.41-.26-.66,8.7-19.9,17.52-66.44,17.6-66.91,.05-.27,.32-.45,.58-.4,.27,.05,.45,.31,.4,.58-.09,.47-8.93,47.12-17.67,67.13-.08,.19-.27,.3-.46,.3Z"></path>
    <path d="M260.91,531.52s-.1,0-.15-.02c-.26-.08-.41-.36-.33-.62,.08-.28,8.5-27.94,15.28-56.02,.07-.27,.34-.43,.6-.37,.27,.07,.43,.33,.37,.6-6.78,28.1-15.21,55.8-15.29,56.07-.07,.22-.26,.35-.48,.35Z"></path>
    <path d="M115.51,550.37c-.2,0-.39-.12-.47-.32-11.18-28.92-.48-37.04-.02-37.37,.22-.16,.53-.11,.7,.11,.16,.22,.11,.54-.11,.7-.11,.08-10.5,8.1,.37,36.2,.1,.26-.03,.55-.29,.65-.06,.02-.12,.03-.18,.03Z"></path>
    <g>
      <path d="M390.9,515.08l-13.63,26.22-21.67,11.76-9.5-8.87,7.43-27.66s24.98,.41,37.37-1.45Z" fill="#fab1c4"></path>
      <path d="M355.52,553.67l-9.98-9.33,7.61-28.33h.39c.25,0,25.08,.4,37.28-1.43l.97-.15-14.15,27.22-22.12,12.01Zm-8.86-9.65l9.01,8.42,21.22-11.52,13.11-25.22c-11.69,1.57-32.96,1.36-36.09,1.32l-7.25,27Z"></path>
    </g>
    <g>
      <path d="M335.29,562.59s-2.19-13.48,6.51-21.87c.59-.57,1.56-.45,2,.23,1.72,2.65,6.18,8.31,12.22,7.36l21.09-9.06c2.86-1.23,5.49-2.92,7.9-4.9,.05-.04,.11-.09,.16-.13,1.53-1.22,3.81-.18,3.88,1.78,.08,2.25,.61,5,2.47,6.54l38.01,24.39s5.87,3.73,8.53,8.72l-55.49-.06s-2-9.32-16.32-11.99l-30.97-1Z" fill="#092cf6"></path>
      <path d="M438.89,576.14l-56.72-.06-.09-.39c-.02-.09-2.13-9.04-15.92-11.6l-31.31-1-.07-.41c-.02-.14-2.13-13.83,6.66-22.31,.38-.37,.91-.55,1.45-.49,.54,.06,1.02,.36,1.31,.81,1.59,2.44,5.91,8.01,11.66,7.15l21.03-9.04c2.64-1.14,5.26-2.76,7.78-4.83l.17-.14c.86-.68,2.01-.82,3.01-.36,1,.46,1.64,1.42,1.68,2.51,.07,2.02,.53,4.72,2.29,6.17l37.96,24.35c.24,.15,6.01,3.85,8.7,8.91l.39,.74Zm-55.94-1.06l54.24,.06c-2.72-4.45-7.88-7.76-7.94-7.8l-38.01-24.39c-2.09-1.72-2.62-4.72-2.7-6.94-.03-.72-.44-1.34-1.1-1.64-.67-.31-1.4-.22-1.97,.24l-.14,.12c-2.6,2.14-5.3,3.81-8.03,4.98l-21.21,9.1c-6.37,1-11.01-4.96-12.71-7.58-.13-.2-.35-.33-.59-.36-.25-.02-.48,.05-.65,.22-7.57,7.3-6.68,18.74-6.42,21.02l30.55,.99c13.04,2.42,16.12,10.13,16.68,11.99Z"></path>
    </g>
    <g>
      <path d="M335.29,562.59s-7.08-.28-13.15,14.57c-.94,2.29,.24,4.91,2.58,5.73,7.37,2.57,24.72,6.93,52.2,4.01l63.64-3.55c.96-.05,1.58-1.04,1.22-1.93l-1.35-3.31c-.55-1.33-1.84-2.21-3.28-2.22l-52.94-.31c-.92,0-1.76-.55-2.12-1.4-1.22-2.82-5.08-9.07-15.83-10.6l-30.97-1Z" fill="#fff"></path>
      <path d="M359.15,588.38c-17.13,0-28.59-2.92-34.6-5.01-1.26-.44-2.25-1.35-2.81-2.57-.55-1.22-.58-2.58-.07-3.82,6.1-14.94,13.27-14.88,13.63-14.88l30.97,1c11.12,1.59,15.08,8.15,16.27,10.9,.29,.66,.94,1.09,1.67,1.09l52.94,.31c1.65,0,3.12,1,3.74,2.53l1.35,3.31c.24,.58,.18,1.21-.15,1.74-.33,.53-.88,.85-1.5,.88l-63.64,3.55c-6.49,.69-12.42,.98-17.79,.98Zm-23.88-25.29c-.22,0-6.91,.16-12.67,14.26-.4,.98-.38,2.06,.06,3.03,.44,.97,1.23,1.69,2.22,2.04,7.81,2.72,24.95,6.86,51.98,3.98l63.67-3.55c.29-.02,.55-.17,.71-.42,.16-.25,.18-.55,.07-.82l-1.35-3.31c-.47-1.15-1.58-1.9-2.82-1.91l-52.94-.31c-1.12,0-2.14-.67-2.58-1.7-1.12-2.6-4.87-8.79-15.44-10.3l-30.92-.99h0Z"></path>
    </g>
    <g>
      <path d="M63.55,486.5s-4.33-15.15-15.15-17.15c0,0-9.32,8.49-10.99,22.48l-9.49,55.45s-5.49,32.8,21.65,38.96l30.43,.65c.32,0,.59-.21,.65-.53,.29-1.64,.72-6.55-4.11-7.79l-21.98-6.66-12.65-17.32,16.15-16.32s11.82-31.47,12.49-32.14-6.99-19.65-6.99-19.65Z" fill="#fff"></path>
      <path d="M80.01,587.39h-.03l-30.53-.67c-27.29-6.19-22.08-39.2-22.03-39.53l9.49-55.45c1.66-13.98,11.05-22.68,11.15-22.76l.18-.17,.24,.05c10.88,2.01,15.27,16.55,15.54,17.48,7.77,19.26,7.14,19.89,6.87,20.16-.6,.9-7.73,19.61-12.37,31.96l-.11,.18-15.85,16.01,12.3,16.84,21.82,6.61c5.26,1.35,4.74,6.74,4.46,8.35-.1,.55-.57,.94-1.13,.94Zm-30.39-1.65l30.38,.65s.13-.05,.15-.11c.32-1.8,.59-6.1-3.74-7.22l-22.16-6.71-13-17.79,16.38-16.54c3.46-9.2,11.29-29.95,12.46-32.06,.03-1.33-4.26-12.48-7-19.26l-.02-.05c-.04-.15-4.3-14.64-14.51-16.75-1.29,1.26-9.16,9.43-10.65,22l-9.49,55.47c-.05,.32-5.09,32.37,21.21,38.38Zm20.46-79.75h0Zm.11-.19s-.07,.09-.09,.13c.04-.06,.07-.11,.09-.13Z"></path>
    </g>
    <path d="M363.74,514.32s-.07,0-.11-.01c-.27-.06-.44-.33-.38-.6l10.54-45.7c4.1-16.7,18.82-26.28,18.96-26.38,3.1-2.12,5.18-4.34,6.38-5.83,.37-.46,.47-1.05,.27-1.6-.2-.57-.68-.98-1.27-1.11-1.66-.36-3.75-.37-5.22-.32-.56,0-1.06-.27-1.33-.75-.27-.49-.25-1.08,.06-1.54l4.85-7.28c.49-.74,.55-1.66,.16-2.45-.39-.8-1.16-1.31-2.05-1.36l-54.35-3.48c-.28-.02-.48-.26-.47-.53,.02-.28,.25-.49,.53-.47l54.35,3.48c1.25,.08,2.32,.8,2.88,1.92s.47,2.41-.22,3.45l-4.85,7.28c-.1,.15-.11,.34-.02,.5,.04,.08,.17,.28,.42,.24,1.52-.05,3.7-.04,5.46,.34,.94,.2,1.69,.86,2.01,1.76,.31,.88,.15,1.84-.44,2.57-1.24,1.54-3.39,3.84-6.61,6.04-.16,.1-14.54,9.48-18.54,25.78l-10.54,45.69c-.05,.23-.26,.39-.49,.39Z"></path>
    <g>
      <path d="M770.64,497.57c-2.02,0-3.96,.31-5.79,.89v-2.22h-7.41v6.57c-3.74,3.52-6.08,8.51-6.08,14.04v.28h38.56v-.28c0-10.65-8.63-19.28-19.28-19.28Z" fill="#c0ff80"></path>
      <path d="M790.42,517.63h-39.56v-.79c0-5.44,2.16-10.49,6.08-14.26v-6.85h8.41v2.05c1.72-.48,3.5-.72,5.29-.72,10.91,0,19.78,8.87,19.78,19.78v.79Zm-38.56-1h37.56c-.12-10.26-8.5-18.56-18.78-18.56-1.92,0-3.82,.29-5.64,.86l-.65,.21v-2.4h-6.41v6.28l-.16,.15c-3.77,3.54-5.86,8.31-5.92,13.46Z"></path>
    </g>
    <path d="M795.6,515.54h-2.64c-.28,0-.5-.22-.5-.5s.22-.5,.5-.5h2.64c1.42,0,2.6-1.11,2.69-2.54,.29-4.93-.12-14.19-6.13-20.76-4.27-4.67-10.65-7.16-18.96-7.42-.28,0-.49-.24-.48-.52,0-.28,.21-.48,.52-.48,8.6,.27,15.22,2.87,19.67,7.75,6.26,6.85,6.69,16.41,6.39,21.5-.12,1.95-1.73,3.48-3.68,3.48Z"></path>
    <g>
      <rect x="767.14" y="482.79" width="5.85" height="5.66" fill="#fff6b3"></rect>
      <path d="M773.5,488.95h-6.85v-6.67h6.85v6.67Zm-5.85-1h4.85v-4.67h-4.85v4.67Z"></path>
    </g>
    <g>
      <polygon points="751.04 520.3 754.54 588.9 788.34 588.9 790.84 519.97 751.04 520.3" fill="#fff"></polygon>
      <path d="M788.82,589.4h-34.76l-.02-.47-3.52-69.12,40.84-.34-2.53,69.94Zm-33.81-1h32.84l2.46-67.93-38.75,.33,3.45,67.6Z"></path>
    </g>
    <path d="M782.51,538.12h-11.66c-.28,0-.5-.22-.5-.5s.22-.5,.5-.5h11.66c.28,0,.5,.22,.5,.5s-.22,.5-.5,.5Z"></path>
    <path d="M782.51,550.77h-11.66c-.28,0-.5-.22-.5-.5s.22-.5,.5-.5h11.66c.28,0,.5,.22,.5,.5s-.22,.5-.5,.5Z"></path>
    <path d="M782.68,563.42h-11.66c-.28,0-.5-.22-.5-.5s.22-.5,.5-.5h11.66c.28,0,.5,.22,.5,.5s-.22,.5-.5,.5Z"></path>
    <path d="M782.01,575.91h-11.66c-.28,0-.5-.22-.5-.5s.22-.5,.5-.5h11.66c.28,0,.5,.22,.5,.5s-.22,.5-.5,.5Z"></path>
    <g>
      <rect x="300.71" y="116.02" width="47.51" height="85.21" rx="23.75" ry="23.75" transform="translate(59.61 -86.92) rotate(16.78)" fill="#fab1c4"></rect>
      <path d="M319.01,200.93c-2.31,0-4.66-.33-6.99-1.04h0c-12.8-3.86-20.08-17.42-16.22-30.22l10.89-36.1c3.86-12.8,17.41-20.08,30.22-16.22,12.8,3.86,20.08,17.42,16.22,30.22l-10.89,36.1c-3.16,10.48-12.81,17.25-23.23,17.25Zm-6.7-1.99c12.28,3.7,25.28-3.27,28.98-15.55l10.89-36.1c3.7-12.28-3.28-25.28-15.55-28.98-12.28-3.7-25.28,3.27-28.98,15.55l-10.89,36.1c-3.7,12.28,3.28,25.27,15.55,28.98h0Z"></path>
    </g>
    <g>
      <path d="M318.52,132.47s-3.9-10.6,9.2-8.89c0,0,19.64,.78,23.85,13.09,0,0,7.17,16.06-3.74,28.06,0,0,16.52-5.14,8.11-33.52,0,0,16.99,5.77,13.87,27.13,0,0,8.26-19.64-7.95-28.53,0,0,17.77-10.29-11.54-22.92,0,0-6.86-12-32.27-4.21,0,0-16.84-19.49-34.61,.31l-12.47,26.97s-6.24,9.82-11.07,11.38c0,0,5.37,2.1,11.19-5.84,.86-1.17,2.57-1.25,3.5-.14l1.58,1.9c.71,.86,1,1.98,.78,3.07-.54,2.66-1.34,8.78-.68,20.03l1.25,17.62s12.94-.47,18.24-5.92l6.7-22.6s4.92,7.07,2.37,13.55c0,0,8.67-4.84,9.27-19.64,.05-1.25,.83-2.31,1.93-2.9,1.38-.74,2.94-2.72,2.49-8Z"></path>
      <path d="M277.05,178.51l-1.28-18.1c-.66-11.31,.15-17.49,.69-20.16,.19-.94-.06-1.91-.68-2.65l-1.58-1.9c-.33-.4-.82-.63-1.35-.61-.54,.02-1.04,.28-1.36,.72-5.98,8.15-11.54,6.1-11.77,6.01l-1.31-.51,1.34-.43c4.6-1.49,10.74-11.08,10.8-11.17l12.52-27.04c5.39-6,11.25-9.05,17.41-9.05,.06,0,.12,0,.18,0,9.34,.09,16.24,7.06,17.56,8.5,24.03-7.26,31.54,2.95,32.45,4.38,10.99,4.76,16.71,9.78,17.02,14.92,.25,4.27-3.3,7.26-4.87,8.36,15.46,9.18,7.54,28.55,7.45,28.75l-1.52,3.62,.57-3.89c2.63-18.05-9.13-24.66-12.62-26.21,7.79,27.66-8.55,33.1-8.72,33.15l-1.75,.55,1.24-1.36c10.57-11.63,3.73-27.36,3.66-27.52-4.07-11.89-23.22-12.79-23.42-12.8-4.08-.53-6.81,.07-8.19,1.79-1.94,2.43-.53,6.38-.52,6.42l.03,.13c.48,5.54-1.23,7.67-2.75,8.48-1,.54-1.62,1.46-1.66,2.48-.61,14.91-9.16,19.85-9.53,20.06l-1.22,.68,.51-1.3c1.89-4.82-.56-10.06-1.75-12.15l-6.42,21.65-.09,.09c-5.38,5.54-18.04,6.06-18.58,6.08l-.48,.02Zm-4.14-44.42c.8,0,1.55,.35,2.06,.97l1.58,1.9c.81,.98,1.14,2.25,.89,3.49-.53,2.63-1.32,8.71-.67,19.9l1.21,17.12c2.36-.15,12.76-1.07,17.33-5.66l6.96-23.48,.59,.85c.19,.28,4.36,6.36,2.89,12.55,2.34-1.93,7.4-7.34,7.84-18.38,.06-1.37,.88-2.62,2.19-3.32,1.25-.67,2.64-2.5,2.23-7.45-.2-.59-1.47-4.61,.7-7.32,1.61-2.01,4.66-2.74,9.06-2.16,.77,.03,19.99,.93,24.26,13.43,.05,.12,6.51,14.95-2.41,26.82,4.03-2.39,12.29-10.16,5.82-31.97l-.27-.93,.92,.31c.16,.05,14.86,5.27,14.59,23.07,1.42-6.18,2.12-17.43-9.07-23.56l-.78-.43,.77-.45c.05-.03,5.36-3.17,5.08-7.9-.28-4.69-6.01-9.58-16.56-14.12l-.15-.07-.08-.14c-.07-.12-7.02-11.54-31.69-3.98l-.31,.1-.21-.25c-.07-.08-7.3-8.31-17.04-8.4-5.94-.04-11.55,2.86-16.77,8.66l-12.44,26.9c-.26,.42-5.24,8.2-9.84,10.93,.02,0,.04,0,.07,0,1.91,0,5.34-.86,9.03-5.9,.51-.69,1.29-1.1,2.14-1.13,.03,0,.06,0,.08,0Z"></path>
    </g>
    <g>
      <path d="M283.44,103.01l-1.53-.88-15,25.26,4.08,1.97s4.12-7.84,12.45-26.35Z" fill="#092cf6"></path>
      <path d="M271.21,130.02l-5-2.42,15.53-26.15,2.35,1.35-.19,.41c-8.24,18.31-12.42,26.3-12.46,26.38l-.22,.43Zm-3.59-2.85l3.15,1.52c.95-1.86,4.98-9.83,12.03-25.48l-.71-.41-14.47,24.36Z"></path>
    </g>
    <g>
      <path d="M266.91,127.38s-7.23,3.16-8.29-5.39c0,0-11.05,4.47-9.87-7.37,0,0,.06-6.54,2.32-12.39,1.59-4.13,4.93-7.33,9.02-9.01,7.06-2.9,20.83-6.5,21.81,8.91l-15,25.26Z"></path>
      <path d="M264.03,128.46c-.9,0-1.89-.17-2.81-.7-1.57-.9-2.58-2.61-3-5.09-1.45,.47-5.21,1.41-7.73-.47-1.84-1.38-2.59-3.94-2.22-7.62,0-.23,.08-6.65,2.35-12.52,1.6-4.14,4.99-7.52,9.3-9.29,5.27-2.16,12.58-4.09,17.52-1,2.99,1.87,4.66,5.35,4.98,10.34v.15s-15.15,25.53-15.15,25.53l-.15,.06c-.09,.04-1.44,.61-3.08,.61Zm-4.99-7.17l.08,.65c.31,2.48,1.17,4.15,2.58,4.96,1.89,1.08,4.26,.32,4.87,.1l14.83-24.98c-.32-4.57-1.83-7.73-4.5-9.4-4.82-3.01-12.47-.62-16.61,1.08-4.06,1.67-7.25,4.85-8.75,8.73-2.2,5.7-2.29,12.15-2.29,12.22-.33,3.35,.28,5.6,1.82,6.76,2.66,2,7.31,.16,7.35,.14l.6-.24Z"></path>
    </g>
    <path d="M284.41,98.55h-.01c-.28,0-.5-.23-.49-.51,.06-2.74-.77-4.77-2.45-6.04-4.44-3.34-13.47-.58-13.56-.55-.26,.08-.54-.06-.63-.33-.08-.26,.06-.54,.33-.63,.39-.12,9.6-2.94,14.46,.71,1.96,1.47,2.92,3.78,2.85,6.86,0,.27-.23,.49-.5,.49Z"></path>
    <path d="M283.44,103.51c-.11,0-.22-.04-.32-.11-.21-.17-.25-.49-.07-.7,.47-.58,11.65-14.09,22.61-12.55,5.31,.74,9.63,4.9,12.84,12.36,.11,.25,0,.55-.26,.66-.25,.11-.55,0-.66-.26-3.06-7.12-7.12-11.08-12.06-11.77-10.42-1.45-21.59,12.06-21.7,12.2-.1,.12-.24,.18-.39,.18Z"></path>
    <g>
      <ellipse cx="295.52" cy="157.34" rx="9.9" ry="12.86" transform="translate(-28.88 74.56) rotate(-13.72)" fill="#fab1c4"></ellipse>
      <path d="M296.75,170.55c-4.95,0-9.78-4.42-11.33-10.75-1.75-7.16,1.36-14.09,6.93-15.45,5.57-1.35,11.52,3.36,13.27,10.51h0c1.75,7.16-1.36,14.09-6.93,15.45-.64,.16-1.3,.23-1.94,.23Zm-2.44-25.43c-.57,0-1.15,.07-1.72,.21-5.03,1.23-7.82,7.62-6.2,14.24,1.62,6.62,7.03,11.01,12.06,9.78,5.03-1.23,7.82-7.62,6.2-14.24-1.43-5.87-5.85-9.99-10.34-9.99Z"></path>
    </g>
    <g>
      <path d="M317.9,200.42l-6.31,10.34s-10.17-6.13-11.34-19.4c0,0,5.62,8.5,17.65,9.06Z"></path>
      <path d="M311.76,211.44l-.43-.26c-.1-.06-10.4-6.41-11.58-19.79l-.17-1.96,1.09,1.64c.05,.08,5.64,8.29,17.26,8.84l.84,.04-7.01,11.48Zm-10.8-18.42c1.58,10.24,8.68,15.78,10.48,17.03l5.61-9.19c-8.63-.68-13.93-5.44-16.09-7.84Z"></path>
    </g>
    <g>
      <path d="M269.01,180.12s2.49,3.59,5.8,6.49c0,0,32.78,27.74,29.51,40.68,0,0-12.2-10.69-19.57-14.69-1.26-.68-2.12-2.25-3.05-3.34l-13.86-16.23c-.48-.57-.69-1.32-.58-2.05l1.75-10.85Z" fill="#092cf6"></path>
      <path d="M304.6,228.2l-.61-.54c-.12-.11-12.24-10.7-19.47-14.63-1-.54-1.72-1.52-2.42-2.46-.26-.35-.51-.69-.77-.99l-13.86-16.23c-.58-.68-.83-1.58-.69-2.46l1.94-12.08,.71,1.02s2.49,3.58,5.72,6.4c1.34,1.14,32.98,28.09,29.66,41.18l-.2,.79Zm-35.29-46.83l-1.56,9.68c-.1,.59,.07,1.19,.46,1.65l13.86,16.23c.27,.32,.54,.68,.81,1.05,.64,.86,1.29,1.74,2.1,2.18,6.35,3.45,16.35,11.91,19,14.19,1.64-12.83-29.18-39.08-29.5-39.35-2.31-2.02-4.2-4.34-5.17-5.61Z"></path>
    </g>
    <g>
      <path d="M340.84,273.76s-30.19,20.87-69.27,23.09c0,0-57.72-64.38-12.88-87.47,0,0,27.97-19.54,82.14,64.38Z" fill="#c0ff80"></path>
      <path d="M271.36,297.36l-.16-.18c-.35-.39-34.7-39.1-29.53-67.15,1.68-9.12,7.33-16.22,16.8-21.09,.14-.1,4.83-3.29,14.03-1.48,13.65,2.68,36.67,16.32,68.76,66.03l.26,.41-.4,.28c-.3,.21-30.76,20.97-69.52,23.18h-.24Zm-4.24-89.44c-5.37,0-8.1,1.86-8.14,1.88-9.23,4.76-14.71,11.62-16.33,20.42-4.9,26.6,26.6,63.23,29.13,66.13,35.96-2.12,64.66-20.28,68.36-22.72-31.76-49.08-54.42-62.54-67.84-65.18-1.94-.38-3.67-.53-5.19-.53Z"></path>
    </g>
    <path d="M282.45,296.02c-.15,0-.29-.06-.39-.19-25.51-31.67-38.88-70.52-39.02-70.91-.09-.26,.05-.55,.31-.63,.26-.09,.54,.05,.63,.31,.13,.39,13.45,39.07,38.85,70.6,.17,.21,.14,.53-.08,.7-.09,.07-.2,.11-.31,.11Z"></path>
    <g>
      <path d="M63.55,486.5l10.78,.7c1.32,.09,2.58,.62,3.55,1.52l6.92,6.33c.72,.66,.65,1.81-.15,2.37l-2.45,1.74-6.48,3.78s-2.05,1.18-2.28,3.28c0,0-.98,5.43,2.6,14.09,0,0,3.87,10.93,6.72,16.12,0,0,1.44,4.47,1.62,7.52,.04,.68-.6,1.19-1.26,1.02l-3.58-.92c-1.37-.35-2.81,.17-3.64,1.31-1.76,2.43-4.9,6.19-6.91,5.21-1.21-.59-2.63-.56-3.63,.35l-8.64,7.85s-2.66,3.5,.33,4.16c0,0,3.26-.42,2.46,5.25-.11,.75,.52,1.4,1.27,1.31,3.85-.5,13.62-.75,15.75,9.09l-24.31-.5s-8.33,1.17-12.82-10.49l-3.03-8.55c-.41-1.17-.53-2.42-.33-3.64l3.03-18.43c.3-1.85,1.43-3.46,3.06-4.41,3.96-2.29,11.43-7.26,14.42-13.6,0,0,7.83-19.48,6.99-32.47Z" fill="#092cf6"></path>
      <path d="M77.16,579.09l-24.94-.51s-8.69,1.07-13.28-10.81l-3.04-8.56c-.44-1.24-.56-2.59-.35-3.89l3.03-18.43c.33-2,1.53-3.73,3.3-4.76,4.06-2.35,11.31-7.21,14.22-13.38,.07-.17,7.76-19.5,6.95-32.22l-.04-.57,11.34,.74c1.43,.09,2.8,.68,3.86,1.64l6.92,6.33c.45,.42,.69,1.01,.65,1.62-.04,.61-.35,1.17-.85,1.53l-2.45,1.74-6.52,3.8s-1.84,1.09-2.04,2.9c-.01,.09-.91,5.44,2.57,13.84,.05,.13,3.9,10.98,6.7,16.07,.1,.27,1.5,4.65,1.68,7.73,.03,.48-.17,.93-.54,1.23-.37,.31-.88,.42-1.34,.3l-3.58-.92c-1.18-.3-2.4,.14-3.11,1.12-2.21,3.05-5.3,6.46-7.54,5.36-1.11-.54-2.29-.44-3.08,.27l-8.64,7.85c-.27,.38-1.17,1.83-.87,2.64,.04,.12,.17,.46,.9,.64,.32-.02,1.23,.02,1.99,.78,.95,.96,1.26,2.66,.93,5.04-.03,.21,.04,.41,.19,.56,.14,.14,.34,.21,.53,.18,4.18-.54,14.1-.7,16.3,9.48l.13,.62Zm-25-1.51l23.74,.48c-2.29-8.74-11.25-8.58-15.05-8.08-.51,.07-1.01-.11-1.37-.47-.37-.37-.54-.88-.46-1.4,.36-2.57-.15-3.7-.65-4.2-.55-.56-1.25-.49-1.25-.49h-.09s-.09,0-.09,0c-1.1-.24-1.53-.84-1.7-1.29-.54-1.48,.91-3.44,1.07-3.66l8.7-7.92c1.09-.99,2.7-1.16,4.19-.43,1.22,.59,3.57-1.29,6.29-5.05,.95-1.32,2.59-1.91,4.17-1.5l3.58,.92c.16,.04,.33,0,.46-.1,.12-.1,.19-.25,.18-.4-.18-2.95-1.58-7.35-1.6-7.39-2.8-5.08-6.68-16-6.72-16.11-3.58-8.67-2.66-14.11-2.62-14.34,.25-2.29,2.43-3.57,2.53-3.63l6.48-3.78,2.42-1.71c.25-.18,.41-.46,.43-.77,.02-.31-.1-.61-.33-.82l-6.92-6.33c-.89-.81-2.04-1.31-3.25-1.38l-10.22-.66c.58,12.95-6.98,31.93-7.06,32.12-3.04,6.44-10.47,11.44-14.63,13.85-1.51,.87-2.54,2.35-2.82,4.05l-3.03,18.43c-.19,1.13-.08,2.31,.3,3.39l3.03,8.54c4.28,11.1,11.96,10.21,12.28,10.16Z"></path>
    </g>
    <g>
      <polygon points="766.79 322.95 776.17 323.47 776.56 336.49 770.44 336.75 763.8 322.95 766.79 322.95" fill="#092cf6"></polygon>
      <path d="M770.13,337.26l-7.13-14.81h3.82s9.83,.55,9.83,.55l.42,13.97-6.94,.3Zm-5.54-13.81l6.15,12.79,5.3-.23-.36-12.07-8.9-.49h-2.18Z"></path>
    </g>
    <g>
      <rect x="692.65" y="321.44" width="43.74" height="72.23" rx="21.87" ry="21.87" transform="translate(43.98 -76.92) rotate(6.36)" fill="#fab1c4"></rect>
      <path d="M712.99,394.09c-.84,0-1.68-.05-2.52-.14-5.94-.66-11.26-3.6-15-8.26s-5.42-10.51-4.76-16.45l3.15-28.32c1.37-12.26,12.45-21.12,24.71-19.76,5.94,.66,11.26,3.6,15,8.26s5.42,10.51,4.76,16.45l-3.15,28.32c-.66,5.94-3.6,11.26-8.26,15-4,3.2-8.87,4.9-13.92,4.9Zm3.09-72.06c-10.73,0-20.01,8.09-21.22,19l-3.15,28.32c-.63,5.67,.98,11.25,4.55,15.71,3.56,4.46,8.65,7.26,14.33,7.89h0c5.67,.63,11.25-.98,15.71-4.55,4.46-3.56,7.26-8.65,7.89-14.33l3.15-28.32c.63-5.67-.98-11.25-4.55-15.71s-8.65-7.26-14.33-7.89c-.8-.09-1.59-.13-2.38-.13Z"></path>
    </g>
    <g>
      <path d="M719.8,329.08s-9.03,7.17-22.91,3.47c0,0-20.13-1.16-9.49,15.74,0,0-12.03-8.33-6.48-19.67,0,0,3.93-8.79,14.12-8.1,0,0,5.09-26.38,31.71-13.42,0,0,21.75-12.96,35.18,4.63,0,0,11.17,19.21,13.97,48.84,.13,1.38,.07,2.78-.2,4.13-.78,3.92-3.31,11.41-11.46,15.07,0,0-25.46,17.13-29.62-4.86l2.55-23.84s-10.65,3.01-15.04,21.75c0,0-2.08,11.8,5.09,15.04,0,0-13.42,.23-11.11-15.74,0,0,2.78-12.03,7.64-18.05,0,0-6.02-10.18-3.93-24.99Z"></path>
      <path d="M727.16,388.36c-.62,0-5.6-.12-8.93-3.9-2.52-2.86-3.4-7.04-2.62-12.41,.12-.53,2.79-11.92,7.54-18.03-.94-1.77-5.46-11.07-3.97-23.9-2.7,1.7-10.97,5.94-22.35,2.93-.7-.03-8.79-.27-11.28,3.95-1.49,2.53-.72,6.24,2.29,11.02l1.31,2.07-2.01-1.39c-.12-.09-12.32-8.71-6.65-20.3,.03-.07,4.08-8.86,14.17-8.4,.5-2.12,3.04-11.27,10.93-15.21,5.7-2.85,12.81-2.26,21.15,1.75,2.43-1.34,22.81-11.85,35.59,4.89,.15,.25,11.29,19.69,14.07,49.1,.14,1.46,.07,2.9-.21,4.28-.83,4.16-3.45,11.7-11.75,15.42-.49,.34-13.92,9.26-23.01,5.46-3.81-1.59-6.26-5.19-7.31-10.69v-.07s2.45-23.09,2.45-23.09c-2.43,1.08-10.37,5.72-13.97,21.1-.01,.09-1.92,11.43,4.81,14.47l2.03,.92-2.23,.04h-.06Zm-6.69-60.45l-.17,1.24c-2.03,14.45,3.81,24.57,3.87,24.67l.18,.3-.22,.27c-4.73,5.86-7.51,17.73-7.54,17.85-.73,5.02,.07,8.92,2.39,11.55,1.87,2.12,4.37,2.98,6.12,3.33-5.17-4.33-3.55-13.94-3.47-14.39,4.42-18.84,14.95-22.02,15.4-22.15l.71-.2-2.62,24.5c.98,5.11,3.24,8.43,6.7,9.88,8.59,3.59,22.01-5.32,22.14-5.41,7.96-3.58,10.46-10.77,11.25-14.75,.25-1.29,.32-2.63,.19-3.99-2.76-29.17-13.8-48.44-13.91-48.64-12.96-16.97-34.28-4.58-34.49-4.45l-.23,.14-.24-.12c-8.14-3.97-15.04-4.59-20.5-1.87-8.32,4.15-10.47,14.83-10.49,14.94l-.08,.43-.44-.03c-9.7-.67-13.59,7.72-13.63,7.8-3.91,7.99,1.12,14.38,4.22,17.31-2.03-4-2.35-7.23-.92-9.64,2.9-4.92,11.87-4.46,12.25-4.44l.1,.02c13.49,3.6,22.38-3.31,22.47-3.38l.98-.78Z"></path>
    </g>
    <path d="M722.13,356.8s-.08,0-.12-.01c-2.17-.54-3.8-1.82-4.84-3.81-4.01-7.67,1.92-23.41,2.17-24.07,.1-.26,.39-.39,.65-.29,.26,.1,.39,.39,.29,.65-.06,.16-6.02,15.98-2.22,23.25,.9,1.73,2.31,2.84,4.19,3.3,.27,.07,.43,.34,.37,.61-.06,.23-.26,.38-.49,.38Z"></path>
    <g>
      <path d="M798.69,292.36s-22.78,3.91-26.56,30.72l4.04,.39,.39,13.02s5.73-3.51,8.85,24.6l-.39,83.71s-1.43,6.64,7.42,7.42c0,0,14.84,2.47,13.54,11.07,0,0-22.13,5.34-19.01,15.23,0,0,2.47,8.33,20.44,8.85,0,0-15.75-11.46-10.81-15.49l25.65-14.71s7.55-4.17,.78-12.24c0,0-10.81-14.45-7.16-25.26,0,0,7.55-27.99,15.88-44.39,0,0,10.15-14.84,5.08-26.04,0,0-6.51-12.5-21.48-28.25,0,0-6.8-5.95-12.06-9.99-2.85-2.19-6.57-2.9-10.03-1.93-3.74,1.05-8.6,3.22-12.66,7.75,0,0,.13-10.94,18.1-24.47Z"></path>
      <path d="M809.01,487.92l-1.62-.05c-18.12-.53-20.8-8.86-20.9-9.21-.58-1.84-.38-3.67,.61-5.42,3.55-6.28,16.14-9.77,18.42-10.36,.78-7.75-13.03-10.15-13.17-10.17-3.14-.28-5.41-1.32-6.72-3.1-1.54-2.09-1.19-4.46-1.12-4.86l.39-83.66c-2.17-19.52-5.63-23.32-7.01-24.05-.66-.34-1.07-.13-1.09-.12l-.71,.38-.04-.8-.38-12.58-4.12-.4,.07-.52c3.78-26.87,26.74-31.11,26.97-31.15l2.03-.35-1.65,1.24c-13.71,10.33-16.92,19.18-17.67,22.59,4-3.94,8.56-5.84,11.8-6.75,3.6-1.01,7.52-.25,10.47,2.02,5.22,4,12.02,9.95,12.09,10.01,14.88,15.65,21.53,28.27,21.59,28.4,5.15,11.35-4.69,25.94-5.11,26.55-8.18,16.11-15.74,43.96-15.81,44.24-3.53,10.46,6.97,24.68,7.08,24.83,2.32,2.76,3.27,5.42,2.81,7.87-.62,3.34-3.62,5.03-3.75,5.1l-25.64,14.71c-.47,.4-.73,.95-.71,1.65,.13,4.64,11.45,12.92,11.56,13.01l1.31,.95Zm-31.83-152.07c.31,0,.68,.07,1.1,.27,2.34,1.15,5.57,6.4,7.63,24.92l-.4,83.87s-.45,2.25,.94,4.13c1.14,1.53,3.17,2.44,6.04,2.69,.66,.11,15.35,2.66,13.99,11.64l-.05,.33-.33,.08c-.14,.03-14.51,3.57-18.12,9.96-.86,1.52-1.03,3.04-.53,4.64,.03,.08,2.49,7.51,18.38,8.43-3.08-2.4-10.57-8.66-10.69-12.82-.03-1.01,.36-1.85,1.14-2.5l25.71-14.76s2.73-1.55,3.26-4.42c.4-2.15-.48-4.52-2.61-7.06-.46-.62-10.94-14.81-7.25-25.74,.07-.25,7.65-28.2,15.91-44.46,.13-.2,9.97-14.8,5.07-25.6-.05-.1-6.65-12.6-21.39-28.11-.04-.03-6.81-5.95-12.01-9.94-2.71-2.08-6.29-2.77-9.59-1.85-3.42,.96-8.35,3.05-12.42,7.61l-.89,.99,.02-1.33c0-.44,.32-10.53,16.35-23.36-5.8,1.85-20.6,8.53-23.74,29.16l3.95,.38,.39,12.84s.09,0,.14,0Z"></path>
    </g>
    <path d="M775.6,384.8c-.06,0-.13-.01-.19-.04-.25-.1-.38-.4-.27-.65,11.92-28.97-3.17-46.76-3.32-46.94-.18-.21-.16-.52,.05-.71,.21-.18,.52-.16,.71,.05,.16,.18,15.66,18.4,3.49,47.97-.08,.19-.27,.31-.46,.31Z"></path>
    <g>
      <ellipse cx="738.78" cy="362.64" rx="13.19" ry="9.72" transform="translate(28.11 777.67) rotate(-56.43)" fill="#fbb2c5"></ellipse>
      <path d="M735.77,375.38c-1.67,0-3.23-.45-4.56-1.33-4.7-3.12-5.12-10.77-.95-17.06,4.18-6.29,11.4-8.87,16.09-5.76,2.3,1.53,3.65,4.16,3.81,7.41,.16,3.2-.86,6.62-2.87,9.65h0c-2.01,3.02-4.77,5.29-7.78,6.39-1.28,.47-2.54,.7-3.75,.7Zm6.01-24.48c-3.71,0-7.9,2.45-10.68,6.64-3.87,5.83-3.57,12.86,.66,15.67,2.03,1.35,4.66,1.53,7.42,.53,2.81-1.03,5.39-3.16,7.28-6h0c1.89-2.85,2.85-6.06,2.7-9.04-.14-2.93-1.34-5.28-3.37-6.63-1.19-.79-2.57-1.16-4.02-1.16Z"></path>
    </g>
    <g>
      <path d="M715.23,393.58l.82,6.41s8.96-1.96,9.94-10.64c0,0-5.13,3.85-10.76,4.23Z"></path>
      <path d="M715.63,400.6l-.96-7.48,.53-.04c5.41-.37,10.45-4.09,10.5-4.13l.93-.69-.13,1.15c-1.01,8.93-10.24,11.05-10.33,11.07l-.53,.12Zm.17-6.56l.68,5.33c1.8-.53,7.54-2.7,8.84-8.94-1.7,1.09-5.42,3.19-9.53,3.62Z"></path>
    </g>
    <g>
      <path d="M727.43,411.04c1.72,.78,3.6,1.1,5.49,1.06,5.72-.11,18.26,1.9,26.29,19.95,0,0,7.33,15.32-1,41.63,0,0-45.62-3.33-47.29-28.64,0,0-51.95-8.66-78.92-20.98,0,0-19.31-4.33-34.3-13.32l-58.87-42.93c-.84-.61-1.88-.91-2.91-.82-3.35,.29-11.8,.19-20.79-6.37-1-.73-2.22-1.11-3.46-1.07-5.32,.19-19.9,.32-22.86-3.96-.24-.35-.31-.78-.24-1.19h0c.14-.82,.86-1.42,1.69-1.41l19.53,.31-24.11-11.74c-1.06-.52-1.92-1.43-2.24-2.57-.37-1.32-.07-2.88,3.04-3.34l-2.36-1.6c-1.3-.88-1.7-2.61-.92-3.97h0c.74-1.29,2.31-1.85,3.7-1.31l24.12,9.42c.44,.17,.83-.35,.53-.72l-14.92-18.75c-1.11-1.4-.66-3.47,.94-4.27h0c.96-.48,2.1-.37,2.95,.27l31.43,23.8c1.27,.97,3.12,.72,4.08-.56,1.21-1.62,2.76-4.19,3.99-7.87,.21-.64,.38-1.31,.47-1.98,.22-1.54,1.05-5.16,4.11-6.29,.87-.32,1.78,.41,1.7,1.33-.13,1.53-.39,4.39-.96,9.65-.06,.55-.1,1.11-.12,1.67l-.64,17.65,52.78,26.31s13.93,5.32,26.99,11.98c3.96,2.02,8.24,3.31,12.65,3.86,19.74,2.49,75.34,9.93,90.42,16.76Z" fill="#fab1c4"></path>
      <path d="M758.56,474.21l-.39-.03c-.46-.03-45.6-3.62-47.72-28.71-4.83-.83-53.1-9.29-78.61-20.93-1.12-.26-19.89-4.67-34.4-13.37l-58.91-42.96c-.75-.55-1.67-.81-2.58-.73-3.3,.28-11.97,.23-21.13-6.46-.91-.67-2.04-1.03-3.14-.97-5.98,.22-20.23,.25-23.29-4.18-.3-.44-.42-.99-.32-1.56,.18-1.06,1.08-1.83,2.16-1.83h.04l17.28,.27-22.09-10.75c-1.25-.61-2.16-1.66-2.5-2.89-.26-.92-.17-1.71,.25-2.37,.39-.61,1.07-1.06,2.02-1.35l-1.4-.95c-1.5-1.02-1.98-3.06-1.07-4.63,.85-1.5,2.71-2.15,4.31-1.52l24.12,9.42-14.96-18.69c-.62-.79-.86-1.8-.64-2.78s.86-1.8,1.75-2.25c1.13-.57,2.46-.44,3.48,.32l31.43,23.8c.52,.39,1.16,.56,1.81,.46,.63-.09,1.19-.42,1.57-.92,1.11-1.48,2.68-4.02,3.92-7.73,.21-.64,.37-1.27,.45-1.89,.23-1.6,1.11-5.47,4.43-6.69,.56-.21,1.18-.11,1.66,.26,.5,.38,.76,.97,.71,1.59-.12,1.46-.39,4.32-.96,9.66-.06,.54-.1,1.09-.12,1.63l-.62,17.33,52.49,26.16c.1,.03,14.06,5.39,27,11.98,3.87,1.97,8.07,3.26,12.49,3.81,22.26,2.8,75.65,10.05,90.56,16.8h0c1.58,.71,3.35,1.05,5.27,1.02,5.33-.07,18.5,1.67,26.75,20.25,.07,.14,7.31,15.79-.98,41.98l-.12,.38Zm-222.29-107.74c1.01,0,2.01,.33,2.85,.94l58.87,42.93c14.7,8.82,33.92,13.19,34.11,13.24l.1,.03c26.6,12.15,78.28,20.85,78.8,20.94l.39,.07,.03,.39c1.54,23.35,41.98,27.73,46.43,28.14,7.97-25.56,.98-40.73,.9-40.88-8.02-18.04-20.77-19.79-25.82-19.66-2.09,.04-3.99-.33-5.7-1.11h0c-15.2-6.88-72.94-14.53-90.28-16.72-4.53-.57-8.84-1.89-12.82-3.91-12.89-6.57-26.81-11.91-26.95-11.96l-53.11-26.47,.65-17.97c.02-.57,.06-1.14,.12-1.7,.58-5.34,.84-8.19,.96-9.64,.02-.27-.1-.54-.32-.71-.21-.16-.47-.2-.71-.11-2.81,1.03-3.58,4.46-3.78,5.89-.09,.67-.26,1.37-.49,2.07-1.28,3.83-2.92,6.47-4.07,8.01-.54,.72-1.33,1.19-2.23,1.31-.92,.13-1.82-.1-2.55-.66l-31.43-23.8c-.71-.53-1.63-.62-2.43-.22-.63,.31-1.07,.88-1.22,1.57-.15,.68,.01,1.39,.45,1.94l14.92,18.75c.27,.35,.28,.82,.02,1.17-.26,.35-.71,.49-1.13,.33l-24.12-9.42c-1.14-.45-2.47,.02-3.08,1.09-.65,1.13-.31,2.58,.77,3.31l3.43,2.32-1.27,.19c-1.28,.19-2.12,.58-2.5,1.16-.26,.4-.3,.92-.13,1.55,.26,.95,.99,1.77,1.98,2.25l26.14,12.73-21.78-.35h-.02c-.58,0-1.08,.42-1.17,.99-.05,.3,0,.61,.16,.83,2.85,4.13,17.89,3.91,22.43,3.75,1.33-.04,2.67,.36,3.77,1.16,8.89,6.49,17.26,6.54,20.46,6.27,.13-.01,.27-.02,.4-.02Z"></path>
    </g>
    <path d="M509.34,346.41c-.07,0-.14-.01-.21-.04l-22.87-10.27c-.25-.11-.36-.41-.25-.66,.11-.25,.41-.36,.66-.25l22.87,10.27c.25,.11,.36,.41,.25,.66-.08,.19-.27,.29-.46,.29Z"></path>
    <path d="M718.42,446.75c-4.73,0-7.5-1.16-7.71-1.25-.25-.11-.37-.4-.26-.66,.11-.25,.4-.37,.66-.26,.09,.04,9.27,3.85,23.09-2.75,.25-.12,.55-.01,.67,.24,.12,.25,.01,.55-.24,.67-6.6,3.15-12.13,4.02-16.21,4.02Z"></path>
    <path d="M618.44,415.45c-4.11,0-9.86-2.75-17.16-8.21-.22-.17-.27-.48-.1-.7,.17-.22,.48-.26,.7-.1,9.17,6.86,15.92,9.38,19.52,7.29,3.85-2.24,3.04-9.09,3.03-9.16-.03-.27,.16-.52,.43-.56,.27-.04,.52,.16,.56,.43,.04,.31,.9,7.58-3.51,10.15-.98,.57-2.14,.86-3.46,.86Z"></path>
    <g>
      <rect x="749.46" y="511.06" width="43.12" height="9.12" fill="#fff6b3"></rect>
      <path d="M793.08,520.67h-44.12v-10.12h44.12v10.12Zm-43.12-1h42.12v-8.12h-42.12v8.12Z"></path>
    </g>
    <g>
      <ellipse cx="340.37" cy="157.04" rx="2.95" ry="2.52" transform="translate(100.98 445.49) rotate(-75.08)"></ellipse>
      <path d="M340.17,160.46c-.23,0-.47-.03-.7-.09-.79-.21-1.44-.77-1.82-1.56-.37-.77-.44-1.68-.21-2.55,.49-1.84,2.2-2.99,3.81-2.56,.79,.21,1.44,.77,1.82,1.56,.37,.77,.44,1.67,.21,2.55h0c-.23,.88-.75,1.63-1.45,2.11-.52,.35-1.09,.54-1.66,.54Zm.39-5.85c-.94,0-1.85,.77-2.15,1.9-.17,.65-.12,1.31,.14,1.86,.25,.53,.67,.89,1.18,1.03,.51,.13,1.05,.03,1.54-.3,.51-.35,.88-.9,1.05-1.54h0c.17-.65,.12-1.31-.14-1.86-.25-.53-.67-.89-1.18-1.03-.14-.04-.29-.06-.44-.06Z"></path>
    </g>
    <path d="M345.38,153.76c-.18,0-.35-.09-.44-.26-2.08-3.77-5.89-2.4-6.05-2.34-.26,.1-.55-.04-.64-.29-.1-.26,.04-.55,.29-.64,.05-.02,4.79-1.72,7.27,2.8,.13,.24,.04,.55-.2,.68-.08,.04-.16,.06-.24,.06Z"></path>
    <g>
      <path d="M347.38,164.58l2.03,11.1c.21,1.14-.89,2.07-1.98,1.69l-3.22-1.14,3.16-11.66Z" fill="#fab1c4"></path>
      <path d="M347.94,177.96c-.22,0-.45-.04-.67-.12l-3.66-1.29,3.86-14.23,2.43,13.27c.13,.71-.12,1.41-.67,1.88-.37,.32-.83,.48-1.29,.48Zm-3.12-2.04l2.78,.98c.34,.12,.71,.05,.98-.18,.28-.23,.4-.59,.33-.94l-1.63-8.94-2.46,9.08Z"></path>
    </g>
    <path d="M339.2,184.38c-5.47,0-8.03-4.71-8.06-4.77-.13-.24-.04-.55,.21-.67,.25-.13,.55-.04,.68,.21,.12,.23,3.07,5.6,9.62,3.91,.27-.07,.54,.09,.61,.36,.07,.27-.09,.54-.36,.61-.96,.25-1.86,.36-2.69,.36Z"></path>
    <g>
      <ellipse cx="699.33" cy="350.32" rx="2.95" ry="2.52" transform="translate(180.75 935.86) rotate(-75.08)"></ellipse>
      <path d="M699.13,353.74c-.23,0-.46-.03-.69-.09-1.61-.43-2.52-2.28-2.03-4.11,.23-.88,.75-1.62,1.45-2.11,.73-.5,1.57-.66,2.36-.45,.79,.21,1.44,.77,1.82,1.56,.37,.77,.44,1.67,.21,2.55h0c-.42,1.58-1.74,2.65-3.12,2.65Zm.4-5.85c-.37,0-.75,.12-1.1,.36-.51,.35-.88,.9-1.05,1.54-.35,1.31,.25,2.6,1.33,2.89,1.08,.29,2.24-.54,2.59-1.85h0c.17-.65,.12-1.31-.14-1.86-.25-.53-.67-.89-1.18-1.03-.14-.04-.29-.06-.44-.06Z"></path>
    </g>
    <path d="M704.34,347.04c-.18,0-.35-.09-.44-.26-2.06-3.75-5.89-2.4-6.05-2.34-.26,.1-.55-.04-.64-.3-.1-.26,.04-.54,.29-.64,.05-.02,4.79-1.72,7.27,2.8,.13,.24,.04,.55-.2,.68-.08,.04-.16,.06-.24,.06Z"></path>
    <path d="M699.71,371.44c-5.47,0-8.03-4.71-8.06-4.77-.13-.24-.04-.55,.21-.67,.25-.13,.55-.04,.68,.21,.12,.23,3.06,5.6,9.62,3.91,.27-.07,.54,.09,.61,.36,.07,.27-.09,.54-.36,.61-.96,.25-1.86,.36-2.69,.36Z"></path>
    <g>
      <path d="M693.17,352.06l-1.1,7.91-2.64-.7c-.73-.19-1.02-1.06-.56-1.65l4.3-5.56Z" fill="#fab1c4"></path>
      <path d="M692.49,360.59l-3.19-.84c-.5-.13-.9-.5-1.07-1s-.08-1.03,.24-1.44l5.45-7.04-1.43,10.33Zm-.07-6.75l-3.16,4.08c-.11,.15-.15,.33-.08,.51,.06,.18,.2,.31,.38,.35l2.1,.55,.76-5.49Z"></path>
    </g>
    <path d="M734.57,366.63c-.13,0-.25-.05-.35-.14-.2-.19-.2-.51,0-.71l6.98-7.14c.19-.2,.51-.2,.71,0,.2,.19,.2,.51,0,.71l-6.98,7.14c-.1,.1-.23,.15-.36,.15Z"></path>
  </g>
  <path d="M295.91,161.9c-.21,0-.4-.13-.47-.34l-3-9c-.09-.26,.05-.55,.32-.63,.26-.09,.54,.05,.63,.32l3,9c.09,.26-.05,.55-.32,.63-.05,.02-.11,.03-.16,.03Z"></path>
</svg>
