<svg xmlns="http://www.w3.org/2000/svg" width="865.76" height="682.89" viewBox="0 0 865.76 682.89"><path d="M561.19,99.4a304.49,304.49,0,0,0-193-68.62c-168.88,0-305.78,136.9-305.78,305.78a306.56,306.56,0,0,0,6.05,60.78Z" fill="#0071bc"/><path d="M581,88.19,81.62,405.6a305.75,305.75,0,0,0,73.19,121L678.23,328.34c.27-5.34.42-10.72.42-16.14A304.92,304.92,0,0,0,581,88.19Z" fill="#0071bc"/><path d="M221.42,504.84a304.67,304.67,0,0,0,205.11,79C578.75,583.84,705,472.6,728.41,327,615,366.52,324.26,468,221.42,504.84Z" fill="#0071bc"/><g opacity="0.8" style="isolation:isolate"><path d="M561.19,99.4a304.49,304.49,0,0,0-193-68.62c-168.88,0-305.78,136.9-305.78,305.78a306.56,306.56,0,0,0,6.05,60.78Z" fill="#fff"/><path d="M581,88.19,81.62,405.6a305.75,305.75,0,0,0,73.19,121L678.23,328.34c.27-5.34.42-10.72.42-16.14A304.92,304.92,0,0,0,581,88.19Z" fill="#fff"/><path d="M221.42,504.84a304.67,304.67,0,0,0,205.11,79C578.75,583.84,705,472.6,728.41,327,615,366.52,324.26,468,221.42,504.84Z" fill="#fff"/></g><path d="M98.41,567.55a1.33,1.33,0,0,1-.48-2.57L265.85,499.3a1.33,1.33,0,0,1,1,2.47L98.89,567.46A1.36,1.36,0,0,1,98.41,567.55Z" fill="#0071bc"/><path d="M449.41,444.69a1.35,1.35,0,0,1-1.25-.86,1.33,1.33,0,0,1,.78-1.71l360.89-136a1.33,1.33,0,1,1,.94,2.48l-360.9,136A1.25,1.25,0,0,1,449.41,444.69Z" fill="#0071bc"/><path d="M474.92,182.47a1.33,1.33,0,0,1-.71-2.45L641.68,74.66a1.32,1.32,0,1,1,1.41,2.24L475.62,182.26A1.3,1.3,0,0,1,474.92,182.47Z" fill="#0071bc"/><path d="M121.4,405.53a1.33,1.33,0,0,1-.69-2.46L311.09,287.14a1.33,1.33,0,1,1,1.38,2.27L122.09,405.34A1.31,1.31,0,0,1,121.4,405.53Z" fill="#0071bc"/><circle cx="152.02" cy="324.84" r="97.89" fill="#fff"/><path d="M152,423.23a98.39,98.39,0,1,1,98.38-98.39A98.5,98.5,0,0,1,152,423.23Zm0-195.78a97.39,97.39,0,1,0,97.38,97.39A97.5,97.5,0,0,0,152,227.45Z" fill="#0071bc"/><circle cx="152.02" cy="324.84" r="89.23" fill="#0071bc"/><path d="M478.89,189.51a9.67,9.67,0,0,0-2.05,6.2c1.39,49.1-13.58,70.13-19.41,76.43a6.06,6.06,0,0,1-6.61,1.59c-7.36-2.82-15.59-13.57-15.59-13.57l1.85-20.65s18-7,18.07-31.16c4-3,5-11.66,5.18-16.4a6.27,6.27,0,0,0-2-4.87,24.16,24.16,0,0,1-6.22-9.71c-3.63-12.17,5.44-9.59,5.44-9.59-.52-4.92,5.69-6.73,5.69-6.73,3.11-6.21,7.25.78,7.25.78,1.82-3.11,4.92,0,4.92,0,1.1-2.31,2.72-2.63,4.21-2.24a5.22,5.22,0,0,1,3.83,5.09v10.87A21.65,21.65,0,0,1,478.89,189.51Z" fill="#fff"/><path d="M452.94,274.63a6.37,6.37,0,0,1-2.3-.43c-7.41-2.84-15.47-13.3-15.81-13.74l-.12-.15,1.9-21.15.29-.11c.17-.07,17.67-7.23,17.75-30.71v-.24l.2-.15c3.84-2.88,4.77-11.27,5-16a5.79,5.79,0,0,0-1.85-4.49,24.46,24.46,0,0,1-6.36-9.93c-1.32-4.41-1.15-7.49.49-9.15s3.78-1.38,4.89-1.2c0-4.25,4.81-6.15,5.88-6.52.9-1.72,2-2.61,3.27-2.66,1.91-.08,3.59,1.91,4.35,3a2.68,2.68,0,0,1,1.72-1,4.4,4.4,0,0,1,3,1.07,3.74,3.74,0,0,1,4.48-1.94,5.72,5.72,0,0,1,4.2,5.58v10.87a22.08,22.08,0,0,1-4.64,14.27h0a9.12,9.12,0,0,0-2,5.88c1.38,48.78-13.21,69.94-19.55,76.78A6.59,6.59,0,0,1,452.94,274.63ZM435.75,260c1,1.32,8.58,10.71,15.24,13.27a5.55,5.55,0,0,0,6.07-1.47c6.25-6.75,20.65-27.66,19.28-76.07a10.15,10.15,0,0,1,2.16-6.53,21,21,0,0,0,4.43-13.63V164.68a4.72,4.72,0,0,0-3.45-4.61c-1.61-.42-2.8.22-3.64,2l-.3.64-.5-.5s-1.42-1.39-2.71-1.22a2,2,0,0,0-1.43,1.12l-.42.73-.44-.73c-.52-.88-2.24-3.15-3.87-3.1-.91,0-1.76.8-2.5,2.3l-.1.19-.21.06c-.06,0-5.8,1.76-5.34,6.2l.08.74-.71-.2s-3-.82-4.58.8c-1.34,1.36-1.43,4.18-.24,8.15a23.72,23.72,0,0,0,6.08,9.49,6.78,6.78,0,0,1,2.17,5.27c-.22,4.84-1.18,13.36-5.18,16.61-.19,22.3-15.77,30.21-18.1,31.26Z" fill="#0071bc"/><path d="M460,182.36c-.75,0-1.58,0-2.47-.12a.5.5,0,0,1-.45-.55.52.52,0,0,1,.54-.45c3.68.35,6.17-.07,7.18-1.21a2.6,2.6,0,0,0,.48-2.37,5.57,5.57,0,0,0-3.08-3.82,10.73,10.73,0,0,1-5.1-5.9.5.5,0,0,1,.95-.31,9.91,9.91,0,0,0,4.6,5.32,6.53,6.53,0,0,1,3.61,4.51,3.55,3.55,0,0,1-.71,3.24C464.51,181.82,462.69,182.36,460,182.36Z" fill="#0071bc"/><path d="M466.49,178.2a3.59,3.59,0,0,1-.78-.09.49.49,0,0,1-.38-.59.5.5,0,0,1,.6-.38,1.72,1.72,0,0,0,1.41-.19,3,3,0,0,0,.94-2L470,161.76a.49.49,0,0,1,.56-.43.51.51,0,0,1,.43.56l-1.71,13.19a3.84,3.84,0,0,1-1.35,2.69A2.44,2.44,0,0,1,466.49,178.2Z" fill="#0071bc"/><path d="M471.68,178a6.31,6.31,0,0,1-3.6-1.59.5.5,0,0,1,.66-.74s2,1.75,3.54,1.24c.89-.3,1.51-1.32,1.86-3l.76-12.1a.5.5,0,1,1,1,.06L475.13,174c-.43,2.17-1.28,3.44-2.53,3.86A2.94,2.94,0,0,1,471.68,178Z" fill="#0071bc"/><path d="M477.08,176.08a6.2,6.2,0,0,1-2.91-.83.5.5,0,0,1,.51-.86s2,1.17,3.54.45c.95-.44,1.58-1.54,1.87-3.25l.82-11.15a.5.5,0,0,1,1,.08l-.83,11.19c-.35,2.11-1.17,3.45-2.45,4A3.61,3.61,0,0,1,477.08,176.08Z" fill="#0071bc"/><path d="M433.19,178.92h0c-22.78-3.37-29.76-26.15-29.76-26.15-5.44-15.8-17.87-12.43-17.87-12.43a31.38,31.38,0,0,0,3.72-7.15l.06-.15c.2-.52.4-1,.59-1.57h0a104.3,104.3,0,0,0,3.65-13.13l4.67-12.18,17-2L428,114.7l-3.13,18.11c-4.67,3.61-7,9.6-7,9.6C410.67,161.05,433.19,178.92,433.19,178.92Z" fill="#fff"/><path d="M433.19,179.42l-.13,0c-22.79-3.4-30.05-26.26-30.12-26.49-5.22-15.16-17.14-12.12-17.26-12.09l-1.42.38.89-1.17a29.93,29.93,0,0,0,3.65-7l.07-.16c.2-.51.39-1,.58-1.55a104.27,104.27,0,0,0,3.63-13.07l4.8-12.54,17.55-2,13.13,10.82-3.21,18.59-.15.12c-4.5,3.48-6.79,9.32-6.82,9.38-7,18.08,14.9,35.76,15.12,35.94l1.13.89Zm-44.91-39.86c4.13,0,11.7,1.68,15.61,13,.07.24,6.8,21.35,27.61,25.52-4.83-4.35-20.27-19.89-14.05-35.89a25.38,25.38,0,0,1,7-9.69l3-17.64-12.35-10.18-16.53,1.9L394,118.5h0a103.79,103.79,0,0,1-3.65,13.13c-.19.54-.39,1.07-.59,1.59l-.07.16a34.85,34.85,0,0,1-3.09,6.27A14.81,14.81,0,0,1,388.28,139.56Z" fill="#0071bc"/><path d="M417.92,142.41s2.56-6,7-9.6l-7.6-26.94S404.45,124.54,417.92,142.41Z" fill="#0071bc"/><path d="M433.18,178.92c-22.78-3.37-29.76-26.15-29.76-26.15-5.44-15.8-17.87-12.43-17.87-12.43a36.29,36.29,0,0,0,3.72-7.15l.06-.15c.35-.88.55-1.47.59-1.57h0c15.39,5.22,21.48,25.21,23,31.07a12.66,12.66,0,0,0,1.75,4C420.56,175.26,432.8,178.81,433.18,178.92Z" fill="#0071bc"/><rect x="424.87" y="237.35" width="5.77" height="1" transform="translate(-29.55 63.44) rotate(-8.2)" fill="red"/><path d="M455.15,208.35c-.08,24.11-18.07,31.16-18.07,31.16l-1.85,20.65-2,22.74c-14.76-16.17-62.37-16.12-62.37-16.12,1.84-15.71-9-57.2-9-57.2l1.7-1.92c5.18,12.43,20.14,9,20.14,9,27.39-6.77,24.42-36,24.42-36-2.05-32.64-22.55-40.38-22.55-40.38,14.76-3.11,19.5,16.44,19.5,16.44,9.67,20.59,28.13,22.14,28.13,22.14,15.57,10.38,20.45,23.2,21.64,27.14a7.62,7.62,0,0,1,.33,2.28Z" fill="#fff"/><path d="M433.59,284.08l-.77-.84c-14.41-15.8-61.38-16-62-16h-.57l.07-.55c1.81-15.45-8.86-56.61-9-57l-.07-.26,2.4-2.71.31.74c4.95,11.89,19,8.87,19.57,8.73,26.63-6.58,24.06-35.14,24-35.43-2-32-22-39.89-22.23-40l-1.6-.6,1.67-.35c14.69-3.1,19.79,15.63,20.08,16.76,9.43,20,27.52,21.79,27.71,21.81h.12l.11.07c15.77,10.52,20.7,23.64,21.84,27.41a8.12,8.12,0,0,1,.35,2.43h0c-.08,22.48-15.76,30.44-18.1,31.5Zm-62.22-17.79c5.54,0,46.66.85,61.42,15.48l3.82-42.61.29-.11c.17-.07,17.67-7.23,17.75-30.71h0a7.09,7.09,0,0,0-.31-2.13c-1.11-3.68-5.92-16.48-21.33-26.8-1.71-.2-19.17-2.72-28.41-22.41l0-.09c-.05-.18-4.46-17.63-17.36-16.32,4.79,2.57,19.67,12.69,21.39,40.11,0,.28,2.7,29.69-24.8,36.49-.16,0-14.86,3.22-20.41-8.6l-1,1.13C363.37,213.51,372.86,250.78,371.37,266.29Z" fill="#0071bc"/><path d="M426.82,238.48c-12.25,0-24-7.66-24.58-8a.5.5,0,1,1,.55-.84c.16.11,16.51,10.76,30.3,7.1a15.92,15.92,0,0,0,9.21-6.59c2.61-3.94,5.43-10.62,4-20a.5.5,0,1,1,1-.15c1.47,9.74-1.45,16.65-4.16,20.74a16.92,16.92,0,0,1-9.78,7A25.45,25.45,0,0,1,426.82,238.48Z" fill="#0071bc"/><path d="M433.19,282.9C429.31,309.2,421.54,318,421.54,318c-10.76-20-56.47-31.43-59.54-32.18-.05,0,0-.07,0-.09,8.76-3.09,8.82-18.93,8.82-18.93C423.41,267.9,433.19,282.9,433.19,282.9Z" fill="#fff"/><path d="M421.44,318.84l-.34-.63c-10.71-19.92-57.24-31.44-59.22-31.92l-.35-.09-.08-.78.39-.18c8.33-2.94,8.48-18.3,8.48-18.46v-.51h.51c52.25,1.11,62.38,15.73,62.78,16.35l.11.16,0,.19c-3.86,26.14-11.45,35-11.77,35.33Zm-58-33.2c8.73,2.23,47.54,13.05,58.2,31.43,1.68-2.32,7.77-12,11.06-34-1.2-1.52-12.94-14.62-61.36-15.74C371.22,270,370.45,281.93,363.41,285.64Z" fill="#0071bc"/><path d="M445.23,247.73a.5.5,0,0,1-.5-.5V233.84a.5.5,0,0,1,1,0v13.39A.5.5,0,0,1,445.23,247.73Z" fill="#0071bc"/><path d="M483.44,391.22l-22.35,10.17-36.24,16.48c-9.45-3.25-18-10.08-24.44-16.52l-1-1a113.06,113.06,0,0,1-11.1-13.24l-.18-.27-2.47,3.27-32,42.56-13.53-10-26.09-19.27c5.95-38.07,21.63-52.17,21.63-52.17-30.15-37.42,26.13-65.5,26.13-65.5a195.88,195.88,0,0,1,32.72,11.39c11.34,5.25,22.37,12.25,27,20.83l-1.29,3.62C463.23,349.57,483.44,391.22,483.44,391.22Z" fill="#0071bc"/><g opacity="0.2"><path d="M461.09,401.39l-36.24,16.48c-9.65-3.54-18.09-10.25-24.44-16.52l-1-1a105.41,105.41,0,0,1-11.1-13.24l-.18-.27-2.47,3.27-23.83-19.67C351.6,374,340.17,422.7,340.17,422.7l-26.09-19.27c5.95-38.07,21.63-52.17,21.63-52.17-30.15-37.42,26.13-65.5,26.13-65.5a195.88,195.88,0,0,1,32.72,11.39h0c-12,7.66,6.07,14.92,6.07,14.92-12.11-.72-15.08,10.58-15.08,10.58C370.27,361.77,461.09,401.39,461.09,401.39Z"/></g><g opacity="0.2"><path d="M381.92,383.47a.45.45,0,0,1-.31-.11l-36.45-28.73c-20-19.23-4.5-50.8-4.34-51.12a.5.5,0,0,1,.89.45c-.15.31-15.28,31.23,4.1,49.91l36.42,28.71a.49.49,0,0,1,.08.7A.47.47,0,0,1,381.92,383.47Z"/></g><g opacity="0.2"><path d="M420.25,322.1a.47.47,0,0,1-.34-.13c-.08-.08-8-7.38-13.39-7.38a.5.5,0,0,1-.5-.5.51.51,0,0,1,.5-.5c5.83,0,13.73,7.33,14.07,7.65a.49.49,0,0,1,0,.7A.48.48,0,0,1,420.25,322.1Z"/></g><path d="M424.85,417.87l30.61,20.78s9.07,1,3.11,27.7c0,0-3.62,28,19.16,60.6,0,0,29.26,40.39,31.85,70.17,0,0,8.81,8.81,18.39,6.22v-4.69a15.37,15.37,0,0,1,8-5.15s-25.38-104.36-28-130.77c0,0-.78-31.85-12.17-49.2l-12.42-22.31Z" fill="#fff"/><path d="M524.3,604.32c-8.12,0-14.75-6.52-15.07-6.84l-.13-.13v-.18c-2.55-29.31-31.47-69.53-31.76-69.93-22.64-32.42-19.29-60.67-19.25-60.95,3.51-15.73,1.82-22.43-.21-25.28a4.17,4.17,0,0,0-2.46-1.87h-.13l-.1-.07-31.35-21.28,59.82-27.2,12.65,22.7c11.32,17.24,12.22,49.12,12.23,49.44,2.55,26,27.7,129.62,28,130.66l.12.48-.48.12a15,15,0,0,0-7.65,4.84v4.9l-.37.1A14.44,14.44,0,0,1,524.3,604.32Zm-14.23-7.43c1.09,1,9,8.07,17.4,6.06v-4.47l.1-.13a15.74,15.74,0,0,1,7.83-5.21C533.53,585.44,510,488,507.53,462.78c0-.36-.9-31.95-12.09-49l-12.21-21.93L425.87,418l29.79,20.21a5.27,5.27,0,0,1,3,2.26c2.15,3,4,10,.38,26,0,.23-3.32,28.13,19.08,60.2C478.43,527.06,507.39,567.33,510.07,596.89Z" fill="#0071bc"/><path d="M474.94,459.67a2.41,2.41,0,0,1-.64-.09c-3.77-1.08-10.6-2.71-14-1.44a.5.5,0,1,1-.35-.93c3.48-1.31,9.88,0,14.63,1.41a1.23,1.23,0,0,0,1.32-.41,1.21,1.21,0,0,0,.15-1.37c-4.78-9.44-20.65-17.67-20.81-17.75a.5.5,0,0,1,.45-.89c.67.34,16.33,8.45,21.26,18.19a2.26,2.26,0,0,1-2,3.28Z" fill="#0071bc"/><path d="M224.74,536.79l28.48-49.72s11.4-35,42.73-51.27c0,0,14-4.92,14-17.61,0,0,.26-11.65,4.15-14.76l39.62,29.26-9.89,16.22a50.7,50.7,0,0,1-18.1,20.53,65.31,65.31,0,0,0-9.52,7.62l-80.32,78.37Z" fill="#fff"/><path d="M235.77,556.23l-11.61-19.44,28.61-49.93c.51-1.53,12.35-35.57,43-51.51.2-.07,13.71-5,13.71-17.16,0-.5.31-11.94,4.34-15.15l.3-.24,40.29,29.76-10.12,16.61A51.62,51.62,0,0,1,326,469.86a64.43,64.43,0,0,0-9.45,7.56Zm-10.45-19.45L236,554.63l79.86-77.92a64.64,64.64,0,0,1,9.6-7.68,50.74,50.74,0,0,0,17.91-20.31l9.68-15.9L314.1,404.07c-3.38,3.27-3.66,14-3.67,14.13,0,12.88-14.17,18-14.31,18.07-30.72,16-42.31,50.61-42.42,51l0,.1Z" fill="#0071bc"/><path d="M324.13,441.42a1.78,1.78,0,0,1-1-.28l-18.24-11a.5.5,0,0,1-.17-.69.51.51,0,0,1,.69-.17l18.23,11a.84.84,0,0,0,1-.09.84.84,0,0,0,.22-1c-3.55-7.93-9-22.61-5.56-31.72a.51.51,0,0,1,.65-.29.5.5,0,0,1,.29.65c-3.42,9.1,2.73,24.68,5.53,30.95a1.88,1.88,0,0,1-1.69,2.62Z" fill="#0071bc"/><path d="M254.57,622.83a7.35,7.35,0,0,1-2.12,3.71,13.79,13.79,0,0,1-2.54,1.92c-8.54,5-21.8,1-21.8,1C208.43,620.43,212.32,596,212.32,596c0-24.94-11.14-32.8-11.14-32.8-2.73-2.63-.77-6.84,2.75-11.07h0c5.82-7,15.89-14,15.89-14,2.85-3.88,4.92-1.29,4.92-1.29l11.13,18.64,1.65,1.88a10.13,10.13,0,0,1,2,9.81l-4.38,13.32a8.48,8.48,0,0,0,.17,5.73A98.53,98.53,0,0,1,240,603.53a8.54,8.54,0,0,0,5,6.27C254.84,614,255.24,619.72,254.57,622.83Z" fill="#fff"/><path d="M238.91,631.51A42,42,0,0,1,228,630c-19.86-9.14-16.18-33.8-16.14-34.05,0-24.27-10.82-32.23-10.93-32.31-2.66-2.55-1.74-6.5,2.65-11.8l.15-.18c5.57-6.61,14.89-13.28,15.78-13.91,1.1-1.49,2.26-2.25,3.43-2.28h0a2.92,2.92,0,0,1,2.18,1l11.17,18.7,1.6,1.8a10.68,10.68,0,0,1,2.09,10.3l-4.38,13.32a8,8,0,0,0,.16,5.39,97.82,97.82,0,0,1,4.74,17.45,8,8,0,0,0,4.73,5.9c10.16,4.39,10.51,10.4,9.81,13.6h0a7.81,7.81,0,0,1-2.25,4,13.53,13.53,0,0,1-2.64,2A22.37,22.37,0,0,1,238.91,631.51Zm-34.75-78.88c-3.88,4.73-4.76,8.16-2.64,10.21.41.28,11.3,8.24,11.3,33.16,0,.32-3.61,24.24,15.5,33,.06,0,13.09,3.83,21.33-1a13.53,13.53,0,0,0,2.46-1.85,6.89,6.89,0,0,0,2-3.46h0c.63-2.89.27-8.36-9.24-12.46a9,9,0,0,1-5.31-6.64,97.35,97.35,0,0,0-4.69-17.26,9,9,0,0,1-.18-6.07L239,567a9.64,9.64,0,0,0-1.9-9.32l-1.64-1.88L224.31,537a1.89,1.89,0,0,0-1.36-.6h0c-.85,0-1.78.7-2.69,1.94l-.11.11c-.1.07-10.08,7.09-15.8,14Z" fill="#0071bc"/><path d="M249.91,628.46c-3.58,7.77-17.92,6.47-17.92,6.47-28.18-3-28.46-33.33-28.15-40.29a20.52,20.52,0,0,0-.39-5.19c-1.89-8.88-8.49-18-8.49-18-9.2-14.07,8.52-19.23,9-19.36-3.52,4.23-5.48,8.44-2.75,11.07,0,0,11.14,7.86,11.14,32.8,0,0-3.89,24.43,15.79,33.49C228.11,629.49,241.37,633.47,249.91,628.46Z" fill="#0071bc"/><path d="M600.48,640.63c-11.92,14.76-50.76,1.29-50.76,1.29C539.1,637,530.3,638.3,530.3,638.3c-18.13,2.07-25.38-5.18-25.38-5.18-4.66-26.68,4.66-36,4.66-36C520.72,607,528,603.34,528,603.34v-4.69c3.37-5.21,8-5.15,8-5.15,9.06-2.33,10.83,10.31,10.83,10.31,1.78,5.92,12.73,9.63,12.73,9.63a295.36,295.36,0,0,1,32.63,5.69c8.26,3,11.2,7.12,11.77,10.92C604.8,635.65,600.48,640.63,600.48,640.63Z" fill="#fff"/><path d="M580.56,648.08c-14.33,0-30-5.33-31-5.69-10.41-4.82-19.1-3.61-19.19-3.6-18.17,2.07-25.5-5-25.8-5.32l-.11-.11,0-.16c-4.65-26.62,4.41-36,4.8-36.43l.33-.33.36.31c9.51,8.41,16.14,6.75,17.55,6.25v-4.5l.08-.12c3.29-5.1,7.74-5.37,8.38-5.38a7.45,7.45,0,0,1,6.17.9c4.2,2.82,5.19,9.56,5.23,9.84,1.6,5.33,11.55,8.93,12.34,9.2a297.18,297.18,0,0,1,32.64,5.71c7.35,2.69,11.42,6.5,12.15,11.33.85,5.71-3.34,10.67-3.6,11C596.5,646.34,588.74,648.08,580.56,648.08Zm-47.35-10.45a40.11,40.11,0,0,1,16.72,3.84c.34.11,38.6,13.16,50.16-1.16h0s4.16-4.87,3.37-10.18c-.67-4.43-4.52-8-11.45-10.52a299.5,299.5,0,0,0-32.51-5.67l-.11,0c-.46-.16-11.22-3.86-13-9.95,0-.14-1-6.67-4.82-9.22a6.47,6.47,0,0,0-5.42-.76l-.13,0c-.18,0-4.37,0-7.52,4.8v4.85l-.28.13c-.3.16-7.51,3.59-18.56-5.95-1.54,1.93-8.25,11.88-4.24,35,1,.86,8.39,6.82,24.85,4.94A21.24,21.24,0,0,1,533.21,637.63Z" fill="#0071bc"/><path d="M550.15,647.54c-10.87-3.12-14.18-3.06-15.11-2.88-.65.12-1.3.25-2,.34-21,2.87-28.16-2.22-28.16-2.22v-9.66s7.25,7.25,25.38,5.18c0,0,8.8-1.3,19.42,3.62,0,0,38.84,13.47,50.76-1.29,0,0,4.32-5,3.48-10.58C616.84,665.31,551,647.79,550.15,647.54Z" fill="#0071bc"/><path d="M416.31,110.28s.56,19.16,8.59,22.53l14.77,5.2s9.06,3.36,7-7.51a3,3,0,0,1,1.81-2.59s4.39-1.47,2-11a1,1,0,0,1,.65-1.18l2.32-.74a2.36,2.36,0,0,0,1.46-3.19l-4.41-10.29s-1-1.67.82-5.6a5.73,5.73,0,0,0,.54-3.26c-.63-5.07-3.18-18.94-12.23-22.73,0,0-10.36.52-10.36,16.32,0,0-7.51-.52-11.13,15.79Z" fill="#fff"/><path d="M442.51,139a9.42,9.42,0,0,1-3-.53l-14.76-5.19c-8.26-3.46-8.9-22.19-8.92-23v-.06l1.89-8.34c3.16-14.24,9.28-16,11.12-16.16.21-15.62,10.73-16.33,10.83-16.34h.12l.1,0C449,73.28,451.69,86.9,452.4,92.57a6.33,6.33,0,0,1-.59,3.54c-1.69,3.56-.85,5.11-.84,5.13l4.44,10.34a2.87,2.87,0,0,1-1.77,3.87l-2.32.74a.49.49,0,0,0-.32.58c2.43,9.89-2.17,11.54-2.37,11.61a2.44,2.44,0,0,0-1.47,2.12c.69,3.56.23,6.09-1.37,7.44A5,5,0,0,1,442.51,139Zm-25.7-28.67c0,1.19.86,18.91,8.28,22l14.74,5.18c.05,0,3.43,1.24,5.32-.35,1.3-1.1,1.64-3.32,1-6.59a3.41,3.41,0,0,1,2.11-3.14c.07,0,3.94-1.53,1.75-10.44a1.49,1.49,0,0,1,1-1.77l2.32-.74a1.88,1.88,0,0,0,1.15-2.52l-4.41-10.29s-1.13-1.89.83-6a5.46,5.46,0,0,0,.5-3c-.69-5.47-3.22-18.58-11.83-22.28-1.13.11-9.77,1.39-9.77,15.81v.53l-.53,0c-.07,0-7.15-.2-10.62,15.41Z" fill="#0071bc"/><path d="M448.16,124.47c-4,0-5.87-1.54-6-1.62a.51.51,0,0,1-.05-.71.49.49,0,0,1,.7,0s2.56,2.06,8.15,1.13a.5.5,0,0,1,.58.41.51.51,0,0,1-.41.58A18.82,18.82,0,0,1,448.16,124.47Z" fill="#0071bc"/><path d="M450,92.67a.5.5,0,0,1-.39-.18c-3.37-4.09-11.56-1.68-11.64-1.65a.5.5,0,0,1-.29-1c.36-.11,8.91-2.63,12.7,2a.5.5,0,0,1-.07.71A.51.51,0,0,1,450,92.67Z" fill="#0071bc"/><ellipse cx="445.49" cy="97.74" rx="1.42" ry="2.72" fill="#0071bc"/><path d="M411.51,108.46s-7.84,11.16-17.94,9.87c0,0-26.67-21-15.53-43.77,0,0,11.91-23.82,39.88-20.45,0,0,21.71,4.44,27.17,20a11.41,11.41,0,0,0-5.42-4.17s-10.62,1-10.36,16.32c0,0-9.37,2.1-8.5,14.35a.49.49,0,0,1-.88.33c-1.59-2.11-4.7-5.38-8.06-4.1Z" fill="#fff"/><path d="M395.24,118.93a12.76,12.76,0,0,1-1.73-.11l-.14,0-.1-.08c-.27-.21-26.86-21.49-15.68-44.38.12-.24,12.39-24.1,40.39-20.73.26,0,22.09,4.69,27.58,20.29L447,78.11l-2.38-3.78a11,11,0,0,0-5.05-3.92c-1.15.16-10,1.84-9.8,15.8v.4l-.4.09c-.36.09-8.94,2.18-8.11,13.83a1,1,0,0,1-.65,1,1,1,0,0,1-1.13-.33c-1.43-1.9-4.22-4.89-7.17-4L412,108.62l-.09.13C411.61,109.19,404.65,118.93,395.24,118.93Zm-1.46-1.08c9.06,1.06,16.37-8.39,17.24-9.56l.36-11.84.31-.11c3.67-1.41,7,2.07,8.64,4.26-.81-11.06,6.66-14.17,8.48-14.76-.08-15.2,10.7-16.43,10.81-16.44h.11l.11,0a11.9,11.9,0,0,1,3.6,2.09C436.72,58.62,418,54.64,417.82,54.6c-27.24-3.28-39.22,19.95-39.33,20.19C368,96.21,392,116.36,393.78,117.85Z" fill="#0071bc"/><path d="M376.73,72.29a13.89,13.89,0,0,0,7.26-4.2A14.12,14.12,0,0,0,387.37,63a17.5,17.5,0,0,0-2.91-18.17c-4.93-5.73-15.22-11.45-36.5-7.69a26.53,26.53,0,0,0-13.38,6.54c-5.94,5.49-10.88,15.22-.3,30.32,0,0,4.24,6.91,15.45,16a16.65,16.65,0,0,1-.19,26.12l-.5.38s27.19-2.85,25.11-36.77l-.26-3.67A3.59,3.59,0,0,1,376.73,72.29Z" fill="#fff"/><path d="M347.24,117.2l1.5-1.09.5-.37a15.86,15.86,0,0,0,6.22-12.46,16.2,16.2,0,0,0-6-12.88c-11.15-9-15.39-15.81-15.56-16.09C323.1,59,328.13,49,334.24,43.36a26.91,26.91,0,0,1,13.64-6.67c21.66-3.83,32.06,2.16,37,7.86a18.08,18.08,0,0,1,3,18.68,14.64,14.64,0,0,1-3.51,5.24,14.48,14.48,0,0,1-7.49,4.31A3.1,3.1,0,0,0,374.39,76l.26,3.68c2.08,34-25.29,37.27-25.56,37.3ZM360.6,36.48a72.48,72.48,0,0,0-12.55,1.19,25.93,25.93,0,0,0-13.13,6.42c-5.82,5.37-10.59,14.88-.23,29.67.05.09,4.35,7,15.35,15.87a17.16,17.16,0,0,1,6.42,13.66,16.88,16.88,0,0,1-5.6,12.4c6.09-1.33,24.52-7.7,22.79-35.92l-.26-3.67a4.11,4.11,0,0,1,3.23-4.3h0a13.46,13.46,0,0,0,7-4.06,13.71,13.71,0,0,0,3.28-4.9,17.07,17.07,0,0,0-2.83-17.64C380.4,40.92,373.47,36.48,360.6,36.48Z" fill="#0071bc"/><path d="M376,72.52s-.58,1.94,1.08,2.41a2.16,2.16,0,0,0,1.21,0c2.21-.66,11.46-4,13.14-14.14a1.67,1.67,0,0,0-.74-1.72c-.56-.33-1.36-.33-2.36,1C388.33,60,386.65,70.22,376,72.52Z" fill="#0071bc"/><path d="M399.27,112.87a.45.45,0,0,1-.16,0c-8.76-3-14.58-7.7-17.31-14-4.08-9.51.26-19.12.45-19.53a.5.5,0,1,1,.9.42c0,.1-4.33,9.63-.42,18.72,2.61,6.07,8.23,10.61,16.7,13.49a.5.5,0,0,1-.16,1Z" fill="#0071bc"/><path d="M409.57,90.1a.5.5,0,0,1-.47-.34C403.26,72.43,388.83,71,388.68,71a.49.49,0,0,1-.45-.54.51.51,0,0,1,.54-.46c.15,0,15.23,1.48,21.28,19.43a.5.5,0,0,1-.32.64Z" fill="#0071bc"/><path d="M406.78,97.33h0c-17.49-.52-23.5-16.42-23.56-16.58a.52.52,0,0,1,.3-.65.5.5,0,0,1,.64.3c.06.16,5.85,15.43,22.65,15.93a.5.5,0,0,1,0,1Z" fill="#0071bc"/><path d="M428.92,79c-6.35,0-12.31-4.41-15.33-7.08A25.8,25.8,0,0,0,407,67.65c-10.72-4.77-16.76-.37-16.82-.32a.5.5,0,1,1-.6-.8c.27-.2,6.58-4.8,17.83.21a26.59,26.59,0,0,1,6.8,4.38c3,2.63,8.88,7,15.05,6.83a.53.53,0,0,1,.51.48.5.5,0,0,1-.49.52Z" fill="#0071bc"/><path d="M370.33,89.2a.51.51,0,0,1-.17,0,.5.5,0,0,1-.31-.63c.1-.28,2.25-6.79-6.53-10.94h0a4.52,4.52,0,0,1-2.55-2.36c-.88-1.87-.68-4.36.61-7.42.23-.59,1.5-3.61,3.18-3.61h0c.91,0,1.63.86,2.2,2.56.07.2,1.79,5.09,5.94,4a.49.49,0,0,1,.61.34.5.5,0,0,1-.35.62c-4,1.13-6.44-2.51-7.14-4.59-.57-1.69-1.09-1.88-1.29-1.88-.72,0-1.78,1.77-2.25,3-1.18,2.79-1.39,5-.63,6.61a3.53,3.53,0,0,0,2,1.86c9.69,4.57,7.14,12.12,7.12,12.2A.49.49,0,0,1,370.33,89.2Z" fill="#0071bc"/><path d="M383.68,59.35a.5.5,0,0,1-.5-.46c-.79-10.2-12.17-10.49-12.66-10.5a.5.5,0,0,1,0-1h0c.12,0,12.78.31,13.64,11.42a.5.5,0,0,1-.46.54Z" fill="#0071bc"/><path d="M369.25,97.33a.5.5,0,0,1-.5-.48c-.16-4.26-3.76-7.72-5.89-9.39a50.14,50.14,0,0,1-5.05-4.52c-1.22-1.27-2.35-2.56-3.34-3.82A25.08,25.08,0,0,1,349,63.61c0-4.48,1.32-7.83,3.89-10,4.21-3.48,10.21-2.41,10.46-2.37a.5.5,0,0,1-.18,1c-.06,0-5.8-1-9.64,2.16-2.33,1.93-3.52,5-3.53,9.18a24,24,0,0,0,5.24,14.89,49.48,49.48,0,0,0,3.27,3.75,48.14,48.14,0,0,0,5,4.42c2.26,1.79,6.09,5.48,6.27,10.14a.5.5,0,0,1-.48.52Z" fill="#0071bc"/><path d="M364.15,104.7a.47.47,0,0,1-.17,0,.49.49,0,0,1-.3-.64c3-8.34-2.92-13.82-6.71-16.34a87.2,87.2,0,0,1-7.19-5.32,113.16,113.16,0,0,1-11.78-11,20,20,0,0,1-4.31-7.44c-1.26-4-1-7.68.92-10.81,4.14-6.93,14.38-9,14.81-9a.51.51,0,0,1,.59.4.5.5,0,0,1-.4.58c-.1,0-10.23,2-14.14,8.57-1.72,2.88-2,6.24-.82,10a18.89,18.89,0,0,0,4.09,7.07A113,113,0,0,0,350.41,81.6a85.48,85.48,0,0,0,7.12,5.26c3.24,2.16,10.43,8.19,7.09,17.51A.52.52,0,0,1,364.15,104.7Z" fill="#0071bc"/><ellipse cx="414.41" cy="103.42" rx="5.05" ry="7.12" transform="matrix(0.96, -0.27, 0.27, 0.96, -12.58, 114.16)" fill="#fff"/><path d="M415.32,110.92a5.33,5.33,0,0,1-3.33-1.31,9.82,9.82,0,0,1-2.84-10.26,4.59,4.59,0,0,1,7.67-2.12,9.25,9.25,0,0,1,2.94,4.71h0c1.12,4-.37,8-3.32,8.83A4.26,4.26,0,0,1,415.32,110.92Zm-1.83-14a3.06,3.06,0,0,0-.85.12,3.9,3.9,0,0,0-2.54,2.65,8.2,8.2,0,0,0-.08,4.94,8.31,8.31,0,0,0,2.6,4.21,3.93,3.93,0,0,0,3.55,1c2.42-.67,3.6-4.07,2.62-7.59a8.24,8.24,0,0,0-2.6-4.21A4.32,4.32,0,0,0,413.49,96.92Z" fill="#0071bc"/><path d="M437.08,256.6s2.83,3-3.9,4c0,0-17.08,2.95-24.72,0l-6.7.18-5.8.15-38.58,1s-29.53,2.88-44.27-6.22a12.66,12.66,0,0,0-5.59-1.83c-2.65-.23-6-1.44-4.84-6.3,0,0-1-21.49,10.36-30.3l36.48-41.47,11.21-11.15s13.68-24,24.82-24.28c0,0,15.28,4.55,21.23,30,0,0,9.73,37.53-23.1,46.37,0,0-16,3.14-20.14-9l-20.2,22.79s19.08,10.18,52.71,12.37l.89.06s2.16.25,4.75.33a28.52,28.52,0,0,0,5.78-.33s6.56-7.77,12.52-8.55c0,0,12.17-2.58,10.61,3.11l5.12-.17s6.34.86,1.26,5.95c0,0,4.5,3.8.62,6.65C437.6,249.87,440.44,252.46,437.08,256.6Z" fill="#fff"/><path d="M346.5,262.84c-10,0-24.51-1.1-33.66-6.75a12.31,12.31,0,0,0-5.37-1.75,6.2,6.2,0,0,1-4.68-2.17,5.62,5.62,0,0,1-.61-4.68c-.07-1.59-.7-21.94,10.56-30.64l36.4-41.41,11.19-11.13c.93-1.62,14.09-24.21,25.21-24.47h.07l.08,0c.16,0,15.63,4.92,21.58,30.35.09.36,9.47,38.1-23.46,47-.19.05-15.81,3-20.45-8.55L344.14,230.3c3.42,1.66,22,10.07,51.94,12l.89.06s2.2.26,4.73.33a28.3,28.3,0,0,0,5.51-.29c.94-1.08,7-7.84,12.71-8.58.81-.17,8.26-1.67,10.61.82a2.66,2.66,0,0,1,.69,2.26l4.49-.15c.2,0,3,.42,3.62,2.28q.59,1.75-1.64,4.16a6,6,0,0,1,2,4.07,3.64,3.64,0,0,1-1.36,2.66c.69.95,1.89,3.37-.6,6.67a2.38,2.38,0,0,1,.35,2.07c-.44,1.22-2,2-4.81,2.4-.68.12-17.15,2.91-24.87,0l-51,1.3C357,262.44,352.57,262.84,346.5,262.84Zm39-122c-10.72.37-24.18,23.79-24.31,24l-.08.11-11.22,11.16-36.45,41.44c-11.13,8.62-10.25,29.73-10.24,30v.07l0,.06a4.73,4.73,0,0,0,.43,3.94,5.45,5.45,0,0,0,4,1.75,13.35,13.35,0,0,1,5.81,1.9c14.42,8.91,43.67,6.18,44,6.15l51.22-1.31.09,0c7.42,2.86,24.29,0,24.46,0,3.1-.43,3.84-1.28,4-1.74a1.59,1.59,0,0,0-.4-1.41l-.29-.32.27-.33c3-3.71.67-6,.57-6.05l-.45-.41.49-.36a2.9,2.9,0,0,0,1.37-2.22c.07-1.86-2-3.63-2-3.64l-.42-.35.39-.39c1.43-1.44,2-2.64,1.75-3.49-.35-1.06-2.09-1.52-2.72-1.61l-5.72.19.18-.65a1.92,1.92,0,0,0-.32-2c-1.66-1.77-7.57-1-9.71-.53-5.74.75-12.17,8.31-12.24,8.38l-.11.14-.17,0a28.48,28.48,0,0,1-5.89.34c-2.59-.08-4.78-.33-4.8-.33l-.87-.06c-33.34-2.18-52.71-12.33-52.91-12.43l-.56-.3,21.19-23.9.28.81c3.95,11.61,19.42,8.73,19.57,8.7,31.94-8.6,22.81-45.38,22.72-45.76C400.68,146.45,386.6,141.22,385.48,140.84Z" fill="#0071bc"/><path d="M363,208.16a.5.5,0,0,1-.32-.11.5.5,0,0,1-.07-.7l11.74-14.47c.25-.62,1.84-3.8,6.92-2.27a.5.5,0,0,1,.33.62.49.49,0,0,1-.62.34c-4.62-1.38-5.68,1.59-5.72,1.72a.51.51,0,0,1-.09.16L363.41,208A.51.51,0,0,1,363,208.16Z" fill="#0071bc"/><path d="M343.34,231h0l-15.25-.86a.5.5,0,0,1-.47-.53.49.49,0,0,1,.52-.47l15.26.86a.5.5,0,0,1,0,1Z" fill="#0071bc"/><path d="M437,243.73h-9.67a.5.5,0,0,1-.5-.5.5.5,0,0,1,.5-.5H437a.5.5,0,0,1,.5.5A.5.5,0,0,1,437,243.73Z" fill="#0071bc"/><path d="M427.31,250.92a.5.5,0,0,1,0-1l10.29-.55a.51.51,0,0,1,.53.48.5.5,0,0,1-.48.52l-10.28.55Z" fill="#0071bc"/><path d="M427.31,257.36a.5.5,0,0,1-.5-.48.5.5,0,0,1,.49-.52l9.77-.26a.52.52,0,0,1,.51.49.49.49,0,0,1-.49.51l-9.77.26Z" fill="#0071bc"/><path d="M462.68,174.05h0a.51.51,0,0,1-.48-.52l.55-12.5a.5.5,0,1,1,1,0l-.55,12.5A.5.5,0,0,1,462.68,174.05Z" fill="#0071bc"/><rect x="393.66" y="248.36" width="0.49" height="4.77" fill="#0071bc"/><rect x="393.66" y="254.38" width="0.49" height="1.92" fill="#0071bc"/><path d="M398.82,249.71a2.31,2.31,0,1,0,2.31,2.31h0A2.31,2.31,0,0,0,398.82,249.71Zm0,3.91a1.6,1.6,0,1,1,1.6-1.6,1.59,1.59,0,0,1-1.6,1.6h0Z" fill="#ffc727"/><polygon points="402.02 257.9 401.75 260.75 395.96 260.9 395.68 257.9 402.02 257.9" fill="#0071bc"/><g opacity="0.2"><polygon points="402.02 257.9 401.93 258.89 395.78 258.98 395.68 257.9 402.02 257.9"/></g><path d="M402,246.76h-6.34l.37-3.94.89.06s2.16.25,4.75.33Z" fill="#0071bc"/><polygon points="402.02 246.76 395.68 246.76 395.76 245.87 401.93 245.78 402.02 246.76" fill="#0071bc"/><rect x="394.16" y="246.76" width="9.39" height="11.14" fill="#0071bc"/><rect x="395.04" y="247.81" width="7.61" height="9.04" fill="#fff"/><path d="M398.66,248.5a.2.2,0,0,1,0,.29.22.22,0,0,1-.29,0h0a0,0,0,0,1,0-.07s.05,0,.06,0h0a.12.12,0,0,0,.16,0,.1.1,0,0,0,0-.16.11.11,0,0,0-.08,0l0,0h0s0,0,0-.06l.08-.09h-.13s0,0,0-.05a0,0,0,0,1,0,0h.24a0,0,0,0,1,.05,0v0h0l-.11.11Z" fill="#0071bc"/><path d="M398,248.33l-.21.49s0,0,0,0h0a0,0,0,0,1,0-.06l.18-.43h-.22s-.05,0-.05,0a0,0,0,0,1,.05,0H398Z" fill="#0071bc"/><path d="M398.22,248.4a.07.07,0,0,1,.07.06s0,.06-.07.06a.06.06,0,0,1-.06-.06h0a.06.06,0,0,1,.06-.06Zm0,.33a.07.07,0,0,1,.07.06s0,.06-.07.06a.06.06,0,0,1-.06-.06h0a.06.06,0,0,1,.06-.06Z" fill="#0071bc"/><path d="M398.85,248.56a.36.36,0,0,1,.06-.2.16.16,0,0,1,.23-.07.12.12,0,0,1,.07.07.36.36,0,0,1,0,.4.18.18,0,0,1-.23.07.16.16,0,0,1-.07-.07A.36.36,0,0,1,398.85,248.56Zm.32,0a.27.27,0,0,0,0-.15.1.1,0,0,0-.08,0,.09.09,0,0,0-.08,0,.26.26,0,0,0,0,.15.23.23,0,0,0,0,.14.12.12,0,0,0,.08.06.16.16,0,0,0,.08-.06.33.33,0,0,0,0-.14Z" fill="#0071bc"/><path d="M399.61,248.77h-.12l0,.06,0,0h0s0,0,0,0h0l.1-.28a0,0,0,0,1,0,0l0,0,.1.28s0,0,0,0h0l0,0Zm0-.05,0-.11,0,.11Z" fill="#0071bc"/><path d="M400,248.54v.28a0,0,0,0,1,0,0s0,0,0,0v-.2l-.07.09,0,0h0l0,0-.07-.09v.2a0,0,0,0,1,0,0s0,0,0,0v-.28s0,0,0,0h0l.09.13.1-.13s0,0,0,0h0l0,0Z" fill="#0071bc"/><path d="M398.82,255.62a.28.28,0,0,1,.29-.26.27.27,0,0,1,.25.23h0v.06a.59.59,0,0,1,0,.23.3.3,0,0,1-.14.19.27.27,0,0,1-.17.06.09.09,0,0,1-.07-.06h0A.07.07,0,0,1,399,256a.2.2,0,0,0,.11,0,.18.18,0,0,0,.07-.08l0,0a.27.27,0,0,1-.36-.14.22.22,0,0,1,0-.11Zm.13,0a.15.15,0,0,0,.13.16.16.16,0,0,0,.16-.14v0a.15.15,0,0,0-.16-.14A.14.14,0,0,0,399,255.62Z" fill="#0071bc"/><path d="M399.54,255.74a.43.43,0,0,1,.08-.27.23.23,0,0,1,.41,0,.52.52,0,0,1,0,.54.24.24,0,0,1-.2.12.24.24,0,0,1-.21-.12A.45.45,0,0,1,399.54,255.74Zm.44,0a.29.29,0,0,0-.05-.2.12.12,0,0,0-.11-.07.15.15,0,0,0-.11.07.41.41,0,0,0,0,.4.19.19,0,0,0,.11.07.14.14,0,0,0,.11-.07.29.29,0,0,0,.05-.2Z" fill="#0071bc"/><path d="M398.4,255.82a1.06,1.06,0,0,1-.36.31,1,1,0,0,1-.36-.31c-.13-.17-.13-.43.06-.49s.3.24.3.24.1-.3.3-.24S398.53,255.65,398.4,255.82Z" fill="#0071bc"/><path d="M398.82,249.71v.71a1.61,1.61,0,1,1-1.6,1.6h0a1.59,1.59,0,0,1,.18-.74l-.63-.32a2.31,2.31,0,1,0,2.05-1.25Z" fill="#0071bc"/><path d="M399.91,251.68l-.32.33a.14.14,0,0,1-.19,0h0l-.16-.17-.26.26.15.16.15.15a.07.07,0,0,1,0,.07c0,.21-.07.41-.11.62a.16.16,0,0,1-.17.14.15.15,0,0,1-.13-.18h0l.06-.43a0,0,0,0,0,0-.05,2.39,2.39,0,0,0-.22-.23l-.26.27a.12.12,0,0,1-.08,0h-.47a.2.2,0,0,1-.21-.13v-.07a.2.2,0,0,1,.21-.12h.29l.05,0,.57-.63h0a.11.11,0,0,0-.13,0l-.2.21a.13.13,0,0,1-.18,0h0a.15.15,0,0,1,0-.2h0l.34-.33.07,0h.39a.14.14,0,0,1,.13.05l.25.23s.06,0,.09,0l.17-.18a.14.14,0,0,1,.19,0h0a.14.14,0,0,1,0,.19Z" fill="#0071bc"/><path d="M399.72,251.27a.23.23,0,0,1-.23.23h0a.23.23,0,0,1-.24-.23.24.24,0,0,1,.24-.24A.23.23,0,0,1,399.72,251.27Z" fill="#0071bc"/><rect x="156.74" y="106.03" width="97.89" height="107.74" rx="14.08" fill="#fff"/><path d="M240.55,214.28H170.83a14.61,14.61,0,0,1-14.59-14.59V120.11a14.6,14.6,0,0,1,14.59-14.58h69.72a14.6,14.6,0,0,1,14.58,14.58v79.58A14.6,14.6,0,0,1,240.55,214.28ZM170.83,106.53a13.6,13.6,0,0,0-13.59,13.58v79.58a13.61,13.61,0,0,0,13.59,13.59h69.72a13.6,13.6,0,0,0,13.58-13.59V120.11a13.59,13.59,0,0,0-13.58-13.58Z" fill="#0071bc"/><rect x="166" y="190.74" width="78.87" height="4.83" fill="#fff"/><path d="M245.37,196.07H165.5v-5.83h79.87Zm-78.87-1h77.87v-3.83H166.5Z" fill="#0071bc"/><rect x="173.24" y="171.42" width="8.25" height="15.49" fill="#fff"/><path d="M182,187.42h-9.25v-16.5H182Zm-8.25-1H181v-14.5h-7.25Z" fill="#0071bc"/><rect x="181.49" y="135.21" width="8.25" height="51.71" fill="#fff"/><path d="M190.24,187.42H181V134.71h9.25Zm-8.25-1h7.25V135.71H182Z" fill="#0071bc"/><rect x="189.74" y="132.99" width="8.25" height="53.92" fill="#fff"/><path d="M198.49,187.42h-9.25V132.49h9.25Zm-8.25-1h7.25V133.49h-7.25Z" fill="#0071bc"/><rect x="197.99" y="162.97" width="8.25" height="23.94" fill="#fff"/><path d="M206.74,187.42h-9.25V162.47h9.25Zm-8.25-1h7.25V163.47h-7.25Z" fill="#0071bc"/><rect x="206.24" y="166.19" width="8.25" height="20.72" fill="#fff"/><path d="M215,187.42h-9.25V165.69H215Zm-8.25-1H214V166.69h-7.25Z" fill="#0071bc"/><rect x="214.49" y="143.46" width="8.25" height="43.46" fill="#fff"/><path d="M223.24,187.42H214V143h9.25Zm-8.25-1h7.25V144H215Z" fill="#0071bc"/><rect x="222.74" y="160.96" width="8.25" height="25.96" fill="#fff"/><path d="M231.49,187.42h-9.25v-27h9.25Zm-8.25-1h7.25v-25h-7.25Z" fill="#0071bc"/><rect x="230.99" y="153.11" width="8.25" height="33.8" fill="#fff"/><path d="M239.74,187.42h-9.25V152.61h9.25Zm-8.25-1h7.25V153.61h-7.25Z" fill="#0071bc"/><circle cx="152.02" cy="324.84" r="80.78" fill="#fff"/><path d="M152,406.12a81.28,81.28,0,1,1,81.28-81.28A81.38,81.38,0,0,1,152,406.12Zm0-161.56a80.28,80.28,0,1,0,80.28,80.28A80.38,80.38,0,0,0,152,244.56Z" fill="#0071bc"/><rect x="97.19" y="280.07" width="2.82" height="39.23" fill="#0071bc"/><rect x="105.24" y="290.94" width="2.82" height="28.37" fill="#0071bc"/><rect x="113.89" y="295.36" width="2.82" height="23.94" fill="#0071bc"/><rect x="121.94" y="285.1" width="2.82" height="34.2" fill="#0071bc"/><rect x="130.79" y="290.94" width="2.82" height="28.37" fill="#0071bc"/><rect x="139.44" y="283.29" width="2.82" height="36.02" fill="#0071bc"/><rect x="167.21" y="303.82" width="2.82" height="15.49" fill="#0071bc"/><rect x="175.86" y="290.94" width="2.82" height="28.37" fill="#0071bc"/><rect x="183.71" y="295.16" width="2.82" height="24.14" fill="#0071bc"/><rect x="192.36" y="277.46" width="2.82" height="41.85" fill="#0071bc"/><rect x="201.01" y="303.82" width="2.82" height="15.49" fill="#0071bc"/><rect x="209.66" y="288.93" width="2.82" height="30.38" fill="#0071bc"/><path d="M115.3,292.6a.47.47,0,0,1-.34-.13L96.85,276.15a.5.5,0,0,1,.67-.75l17.71,16,7.72-10a.48.48,0,0,1,.35-.19.54.54,0,0,1,.38.12l7.89,7,8.45-8.52a.5.5,0,0,1,.71,0,.51.51,0,0,1,0,.71L132,289.28a.5.5,0,0,1-.69,0l-7.85-6.93-7.72,10a.48.48,0,0,1-.35.19Z" fill="#0071bc"/><rect x="95.98" y="360.55" width="37.63" height="6.84" fill="#fff"/><path d="M134.11,367.9H95.48v-7.85h38.63Zm-37.63-1h36.63v-5.85H96.48Z" fill="#0071bc"/><rect x="170.43" y="360.55" width="37.63" height="6.84" fill="#0071bc"/><path d="M168.61,300.59a.45.45,0,0,1-.27-.08.5.5,0,0,1-.14-.69l10.06-15.05a.52.52,0,0,1,.33-.21.49.49,0,0,1,.39.09l5.94,4.51,8.39-18a.49.49,0,0,1,.49-.29.5.5,0,0,1,.44.35l9,27.61,7.38-14.31a.5.5,0,1,1,.89.45l-7.93,15.38a.5.5,0,0,1-.92-.07l-9-27.55-8.11,17.44a.5.5,0,0,1-.76.19l-6-4.56L169,300.37A.48.48,0,0,1,168.61,300.59Z" fill="#0071bc"/><rect x="528.63" y="56.09" width="199" height="142.58" rx="24.4" fill="#fff"/><path d="M703.23,199.17H553a24.93,24.93,0,0,1-24.9-24.89V80.48A24.93,24.93,0,0,1,553,55.59h150.2a24.93,24.93,0,0,1,24.9,24.89v93.8A24.93,24.93,0,0,1,703.23,199.17ZM553,56.59a23.92,23.92,0,0,0-23.9,23.89v93.8A23.92,23.92,0,0,0,553,198.17h150.2a23.92,23.92,0,0,0,23.9-23.89V80.48a23.92,23.92,0,0,0-23.9-23.89Z" fill="#0071bc"/><rect x="585.56" y="110.45" width="10.26" height="62.06" fill="#fff"/><path d="M596.32,173H585.06V110h11.26Zm-10.26-1h9.26V111h-9.26Z" fill="#0071bc"/><rect x="612.74" y="124.81" width="10.26" height="47.7" fill="#fff"/><path d="M623.5,173H612.24V124.32H623.5Zm-10.26-1h9.26V125.32h-9.26Z" fill="#0071bc"/><rect x="635.82" y="141.23" width="10.26" height="31.29" fill="#fff"/><path d="M646.58,173H635.32V140.73h11.26Zm-10.26-1h9.26V141.73h-9.26Z" fill="#0071bc"/><rect x="660.95" y="132.51" width="10.26" height="40.01" fill="#fff"/><path d="M671.71,173H660.45V132h11.26Zm-10.26-1h9.26V133h-9.26Z" fill="#0071bc"/><rect x="685.06" y="118.66" width="10.26" height="53.85" fill="#fff"/><path d="M695.82,173H684.56V118.16h11.26Zm-10.26-1h9.26V119.16h-9.26Z" fill="#0071bc"/><path d="M641,130a.49.49,0,0,1-.28-.09c-7.45-5-72.9-48.81-73.93-49.85a.5.5,0,0,1,0-.7.49.49,0,0,1,.7,0c1.21,1.07,48.49,32.8,73.55,49.57l9.6-4.53a.57.57,0,0,1,.29,0l16.45,2.53,20.92-22.62a.49.49,0,0,1,.7,0,.48.48,0,0,1,0,.7l-21.1,22.81a.49.49,0,0,1-.44.15l-16.56-2.54-9.71,4.59A.59.59,0,0,1,641,130Z" fill="#0071bc"/><rect x="539.63" y="230.66" width="201" height="238.43" rx="12.75" fill="#fff"/><path d="M727.88,469.59H552.38a13.26,13.26,0,0,1-13.25-13.25V243.41a13.27,13.27,0,0,1,13.25-13.25h175.5a13.27,13.27,0,0,1,13.25,13.25V456.34A13.26,13.26,0,0,1,727.88,469.59ZM552.38,231.16a12.27,12.27,0,0,0-12.25,12.25V456.34a12.26,12.26,0,0,0,12.25,12.25h175.5a12.26,12.26,0,0,0,12.25-12.25V243.41a12.27,12.27,0,0,0-12.25-12.25Z" fill="#0071bc"/><rect x="551.71" y="235.09" width="185.38" height="229.59" rx="9.9" fill="#fff"/><path d="M727.2,465.17H561.61a10.41,10.41,0,0,1-10.4-10.39V245a10.42,10.42,0,0,1,10.4-10.4H727.2A10.41,10.41,0,0,1,737.59,245v209.8A10.4,10.4,0,0,1,727.2,465.17ZM561.61,235.58a9.41,9.41,0,0,0-9.4,9.4v209.8a9.41,9.41,0,0,0,9.4,9.39H727.2a9.4,9.4,0,0,0,9.39-9.39V245a9.41,9.41,0,0,0-9.39-9.4Z" fill="#0071bc"/><path d="M737.09,418.11v36.67a9.89,9.89,0,0,1-9.89,9.89H561.61a9.89,9.89,0,0,1-9.9-9.89V418.11Z" fill="#0071bc"/><path d="M586.79,452.5a.53.53,0,0,1-.24-.06l-26.23-13.85a.5.5,0,1,1,.47-.88l25.89,13.67,15.65-16.81a.49.49,0,0,1,.37-.16.57.57,0,0,1,.37.16l7.46,8.29,11.45-4.3a.5.5,0,0,1,.56.16l9.83,12.46,10.89-14.8a.49.49,0,0,1,.56-.18.5.5,0,0,1,.35.47V450.8l16.46-16.25a.51.51,0,0,1,.42-.14.49.49,0,0,1,.37.25l6.07,10.57L710,433.9a.5.5,0,1,1,.26,1l-42.89,11.43a.49.49,0,0,1-.56-.23l-5.94-10.34L644,452.36a.5.5,0,0,1-.85-.36V438.2l-10.38,14.1a.51.51,0,0,1-.8,0l-10-12.68-11.43,4.29a.49.49,0,0,1-.54-.13l-7.33-8.14-15.54,16.69A.52.52,0,0,1,586.79,452.5Z" fill="#fff"/><path d="M711.27,439.58h-.1a.51.51,0,0,1-.39-.36l-2.46-9.48a.49.49,0,0,1,.15-.5.49.49,0,0,1,.52-.09l7.36,2.94a.49.49,0,0,1,.3.33.53.53,0,0,1-.08.44l-4.9,6.53A.51.51,0,0,1,711.27,439.58Zm-1.74-9.15,2,7.52,3.89-5.18Z" fill="#fff"/><circle cx="598.57" cy="293.73" r="32.12" fill="#fff"/><path d="M598.57,326.36a32.63,32.63,0,1,1,32.63-32.62A32.67,32.67,0,0,1,598.57,326.36Zm0-64.25a31.63,31.63,0,1,0,31.63,31.63A31.66,31.66,0,0,0,598.57,262.11Z" fill="#0071bc"/><circle cx="686.4" cy="292.26" r="32.12" fill="#fff"/><path d="M686.4,324.89A32.63,32.63,0,1,1,719,292.26,32.66,32.66,0,0,1,686.4,324.89Zm0-64.25A31.63,31.63,0,1,0,718,292.26,31.65,31.65,0,0,0,686.4,260.64Z" fill="#0071bc"/><circle cx="686.4" cy="377.44" r="32.12" fill="#fff"/><path d="M686.4,410.06A32.63,32.63,0,1,1,719,377.44,32.66,32.66,0,0,1,686.4,410.06Zm0-64.25A31.63,31.63,0,1,0,718,377.44,31.66,31.66,0,0,0,686.4,345.81Z" fill="#0071bc"/><circle cx="598.57" cy="375.37" r="32.12" fill="#fff"/><path d="M598.57,408a32.63,32.63,0,1,1,32.63-32.63A32.67,32.67,0,0,1,598.57,408Zm0-64.25a31.63,31.63,0,1,0,31.63,31.62A31.66,31.66,0,0,0,598.57,343.75Z" fill="#0071bc"/><path d="M590.31,294l1.81,7.56,2.57-15.66L597,298.31l1.79-5.18,2.82,8.47.63-1.87h11.24l.24-.31c5.4-7.13,5.1-18.22-2.58-20.73-8.49-2.76-12.75,10.17-12.75,10.17s-4.19-12.84-12.73-10.17c-7.72,2.42-8,13.6-2.59,20.73l.24.31h4.5Z" fill="#0071bc"/><path d="M601.56,305.05l-2.84-8.52-2.1,6.07-1.87-10.28-2.43,14.78L590,297.41l-1.52,3.42h-4.36a47.81,47.81,0,0,0,14.22,11.9,47.34,47.34,0,0,0,14.23-11.91H603Z" fill="#0071bc"/><path d="M608.69,369.75c-.5-5.06-4-10.09-10.11-10.09s-9.61,5-10.11,10.09c-.77,7.81,4.49,14.88,10.11,21.33C604.2,384.63,609.43,377.56,608.69,369.75Zm-10.11,5.62a5.54,5.54,0,1,1,5.54-5.54,5.54,5.54,0,0,1-5.54,5.54Z" fill="#0071bc"/><path d="M687.7,376.69,699.21,367a2.79,2.79,0,0,0-.76-.11H674.38a2.79,2.79,0,0,0-.76.11l11.51,9.69A1.94,1.94,0,0,0,687.7,376.69Z" fill="#0071bc"/><path d="M688.68,377.86a3.47,3.47,0,0,1-4.51,0l-11.89-10a2.76,2.76,0,0,0-.68,1.78v15.57a2.76,2.76,0,0,0,2.76,2.76h24.08a2.75,2.75,0,0,0,2.76-2.76h0V369.65a2.76,2.76,0,0,0-.66-1.78Z" fill="#0071bc"/><path d="M689.79,299.63l-.91.89a1.36,1.36,0,0,1-1.93,0h0l-8.88-8.87a1.37,1.37,0,0,1,0-1.94h0l.9-.91-5.15-5.15-1.25,1.81a6.89,6.89,0,0,0,.63,9l11,11a6.89,6.89,0,0,0,9,.63l1.81-1.36Z" fill="#0071bc"/><rect x="692.48" y="296.06" width="2.53" height="9.39" rx="0.87" transform="translate(-9.47 578.64) rotate(-45)" fill="#0071bc"/><rect x="676.61" y="280.18" width="2.53" height="9.39" rx="0.87" transform="translate(-2.9 562.77) rotate(-45)" fill="#0071bc"/><path d="M692.86,292.06a.58.58,0,0,1-.58-.57,5.14,5.14,0,0,0-5.13-5.14.58.58,0,1,1,0-1.15,6.31,6.31,0,0,1,6.28,6.29A.58.58,0,0,1,692.86,292.06Z" fill="#0071bc"/><path d="M696.9,292.06a.58.58,0,0,1-.58-.57,9.18,9.18,0,0,0-9.18-9.19.58.58,0,1,1,0-1.15,10.33,10.33,0,0,1,10.33,10.34A.57.57,0,0,1,696.9,292.06Z" fill="#0071bc"/><path d="M701.06,292.06a.58.58,0,0,1-.58-.57,13.35,13.35,0,0,0-13.33-13.34.58.58,0,1,1,0-1.15,14.51,14.51,0,0,1,14.48,14.49A.58.58,0,0,1,701.06,292.06Z" fill="#0071bc"/></svg>